# Blender 4.5.3 LTS
# www.blender.org
mtllib arrow_scale.mtl
o Axis_Guide.004
v -0.005371 0.007971 -0.004723
v -0.005371 0.007771 0.010927
v -0.005401 -0.009969 0.010697
v -0.005401 -0.009769 -0.004953
v 0.398569 0.007211 -0.004733
v 0.398539 -0.010519 -0.004953
v 0.398539 -0.010719 0.010687
v 0.398569 0.007010 0.010917
vn -0.6674 0.3456 -0.6596
vn -0.4096 0.8111 0.4174
vn 0.4096 0.8190 -0.4017
vn -0.6678 -0.3387 0.6629
vn -0.4096 -0.8111 -0.4175
vn 0.6692 -0.3229 -0.6692
vn 0.4096 -0.8190 0.4017
vn 0.6674 0.3229 0.6710
vt 0.375000 0.000000
vt 0.625000 0.000000
vt 0.375000 -0.250000
vt 0.375000 -1.000000
vt 0.625000 -0.750000
vt 0.625000 -1.000000
vt 0.375000 -0.750000
vt 0.125000 0.000000
vt 0.125000 -0.250000
vt 0.375000 -0.500000
vt 0.625000 -0.500000
vt 0.625000 -0.250000
vt 0.875000 0.000000
vt 0.875000 -0.250000
s 1
usemtl Fbx_Default_Material
f 1/1/1 2/2/2 5/3/3
f 1/4/1 3/5/4 2/6/2
f 4/7/5 3/5/4 1/4/1
f 4/8/5 1/1/1 6/9/6
f 6/9/6 1/1/1 5/3/3
f 6/10/6 7/11/7 4/7/5
f 6/10/6 8/12/8 7/11/7
f 5/3/3 8/12/8 6/10/6
f 8/12/8 3/13/4 7/14/7
f 5/3/3 2/2/2 8/12/8
f 2/2/2 3/13/4 8/12/8
f 4/7/5 7/11/7 3/5/4
o Axis_Guide.005
v 0.362839 0.037721 -0.036793
v 0.362839 0.036691 0.043747
v 0.362699 -0.040349 0.042767
v 0.362699 -0.039319 -0.037783
v 0.431129 0.037590 -0.036793
v 0.430979 -0.039449 -0.037783
v 0.430979 -0.040479 0.042757
v 0.431129 0.036571 0.043747
vn -0.6675 0.3456 -0.6596
vn -0.4096 0.8111 0.4175
vn 0.4096 0.8191 -0.4017
vn -0.6677 -0.3387 0.6629
vn -0.4096 -0.8111 -0.4175
vn 0.6692 -0.3229 -0.6693
vn 0.4096 -0.8190 0.4017
vn 0.6675 0.3229 0.6710
vt 0.375000 0.000000
vt 0.625000 0.000000
vt 0.375000 -0.250000
vt 0.375000 -1.000000
vt 0.625000 -0.750000
vt 0.625000 -1.000000
vt 0.375000 -0.750000
vt 0.125000 0.000000
vt 0.125000 -0.250000
vt 0.375000 -0.500000
vt 0.625000 -0.500000
vt 0.625000 -0.250000
vt 0.875000 0.000000
vt 0.875000 -0.250000
s 1
usemtl Fbx_Default_Material
f 9/15/9 10/16/10 13/17/11
f 9/18/9 11/19/12 10/20/10
f 12/21/13 11/19/12 9/18/9
f 12/22/13 9/15/9 14/23/14
f 14/23/14 9/15/9 13/17/11
f 14/24/14 15/25/15 12/21/13
f 14/24/14 16/26/16 15/25/15
f 13/17/11 16/26/16 14/24/14
f 16/26/16 11/27/12 15/28/15
f 13/17/11 10/16/10 16/26/16
f 10/16/10 11/27/12 16/26/16
f 12/21/13 15/25/15 11/19/12
