# Blender v3.3.1 OBJ File: ''
# www.blender.org
mtllib CoffeeTable.mtl
o CoffeeTable_Cube.007_Cube.008
v 1.143674 2.003906 -3.524714
v 1.143674 2.285825 -3.524714
v 1.496074 2.285825 -3.524714
v 1.496074 2.003906 -3.524714
v 1.496073 2.003905 3.170849
v 1.496073 2.285825 3.170850
v 1.496073 2.285825 3.523252
v 1.496073 2.003905 3.523251
v -0.970713 2.003906 3.523251
v -0.970713 2.285825 3.523252
v -1.323112 2.285825 3.523252
v -1.323112 2.003906 3.523251
v -1.323111 2.003906 -3.172313
v -1.323111 2.285825 -3.172312
v -1.323111 2.285825 -3.524714
v -1.323111 2.003906 -3.524714
v -0.970713 2.003906 3.170849
v -1.323112 2.003906 3.170849
v -0.970713 2.285825 -3.172312
v -0.970713 2.285825 -3.524714
v -0.970713 2.285825 3.170850
v -1.323112 2.285825 3.170850
v -0.970713 2.003906 -3.172313
v 1.496074 2.003906 -3.172313
v 1.496074 2.285825 -3.172312
v -0.970713 2.003906 -3.524714
v 1.143674 2.285825 3.170850
v 1.143674 2.285825 -3.172312
v 1.143674 2.003906 -3.172313
v 1.143674 2.003905 3.170849
v 1.143674 2.285825 3.523252
v 1.143674 2.003905 3.523251
v 1.143674 0.030477 -3.524714
v 1.143674 0.312397 -3.524714
v 1.496073 0.312397 -3.524714
v 1.496073 0.030477 -3.524714
v 1.496073 0.030475 3.170849
v 1.496073 0.312395 3.170849
v 1.496073 0.312395 3.523251
v 1.496073 0.030475 3.523251
v -0.970714 0.030475 3.523251
v -0.970714 0.312395 3.523251
v -1.323112 0.312395 3.523251
v -1.323112 0.030476 3.523251
v -1.323112 0.030478 -3.172313
v -1.323112 0.312396 -3.172313
v -1.323112 0.312397 -3.524714
v -1.323112 0.030478 -3.524714
v -0.970714 0.030475 3.170849
v -1.323112 0.030476 3.170849
v 1.143674 0.312395 3.170849
v 1.143674 2.003906 3.170849
v 1.496073 2.003906 3.170849
v -0.970714 0.312395 3.170849
v -1.323112 0.312395 3.170849
v -0.970713 0.030477 -3.172313
v 1.496073 0.030477 -3.172313
v 1.496073 0.312396 -3.172313
v -0.970713 0.030477 -3.524714
v -0.970713 0.312396 -3.172313
v 1.143674 0.312396 -3.172313
v 1.143674 0.030477 -3.172313
v 1.143673 0.030475 3.170849
v 1.143674 0.312395 3.523251
v -0.970713 0.312397 -3.524714
v 1.143674 0.030475 3.523251
v 1.496073 2.003906 3.523251
v 1.143674 2.003906 3.523251
v -0.970713 2.003907 -3.172313
v -0.970713 2.003907 -3.524714
v -1.323111 2.003907 -3.524714
v -1.323111 2.003907 -3.172313
vt 0.375000 0.217546
vt 0.625000 0.217546
vt 0.625000 0.250000
vt 0.375000 0.250000
vt 0.375000 0.375000
vt 0.625000 0.375000
vt 0.625000 0.500000
vt 0.375000 0.500000
vt 0.375000 0.725105
vt 0.625000 0.725105
vt 0.625000 0.750000
vt 0.375000 0.750000
vt 0.375000 0.990904
vt 0.625000 0.990904
vt 0.625000 1.000000
vt 0.375000 1.000000
vt 0.250000 0.725105
vt 0.250000 0.750000
vt 0.865904 0.725105
vt 0.875000 0.725105
vt 0.875000 0.750000
vt 0.865904 0.750000
vt 0.750000 0.725105
vt 0.750000 0.750000
vt 0.134096 0.725105
vt 0.134096 0.750000
vt 0.625000 0.875000
vt 0.375000 0.875000
vt 0.375000 0.259096
vt 0.625000 0.259096
vt 0.125000 0.725105
vt 0.125000 0.750000
vt 0.750000 0.532454
vt 0.865904 0.532454
vt 0.125000 0.532454
vt 0.134096 0.532454
vt 0.250000 0.532454
vt 0.625000 0.532454
vt 0.875000 0.532454
vt 0.375000 0.532454
vt 0.375000 0.000000
vt 0.625000 0.000000
vt 0.625000 0.024895
vt 0.375000 0.024895
vt 0.250000 0.500000
vt 0.865904 0.500000
vt 0.875000 0.500000
vt 0.750000 0.500000
vt 0.134096 0.500000
vt 0.125000 0.500000
vt 0.375000 0.217546
vt 0.625000 0.217546
vt 0.625000 0.250000
vt 0.375000 0.250000
vt 0.375000 0.375000
vt 0.625000 0.375000
vt 0.625000 0.500000
vt 0.375000 0.500000
vt 0.375000 0.725105
vt 0.625000 0.725105
vt 0.625000 0.750000
vt 0.375000 0.750000
vt 0.375000 0.990904
vt 0.625000 0.990904
vt 0.625000 1.000000
vt 0.375000 1.000000
vt 0.250000 0.725105
vt 0.250000 0.750000
vt 0.750000 0.500000
vt 0.750000 0.532454
vt 0.750000 0.532454
vt 0.750000 0.500000
vt 0.750000 0.725105
vt 0.750000 0.750000
vt 0.134096 0.725105
vt 0.134096 0.750000
vt 0.625000 0.875000
vt 0.375000 0.875000
vt 0.375000 0.259096
vt 0.625000 0.259096
vt 0.125000 0.725105
vt 0.125000 0.750000
vt 0.865904 0.725105
vt 0.865904 0.750000
vt 0.865904 0.532454
vt 0.125000 0.532454
vt 0.134096 0.532454
vt 0.250000 0.532454
vt 0.625000 0.532454
vt 0.875000 0.532454
vt 0.875000 0.725105
vt 0.375000 0.532454
vt 0.375000 0.000000
vt 0.625000 0.000000
vt 0.625000 0.024895
vt 0.375000 0.024895
vt 0.250000 0.500000
vt 0.865904 0.500000
vt 0.875000 0.500000
vt 0.625000 0.500000
vt 0.625000 0.532454
vt 0.134096 0.500000
vt 0.125000 0.500000
vt 0.865904 0.725105
vt 0.875000 0.725105
vt 0.875000 0.750000
vt 0.865904 0.750000
vt 0.625000 0.990904
vt 0.625000 1.000000
vt 0.625000 0.000000
vt 0.625000 0.024895
vt 0.625000 0.375000
vn -0.0000 0.0000 -1.0000
vn 1.0000 0.0000 0.0000
vn -0.0000 -0.0000 1.0000
vn -1.0000 -0.0000 -0.0000
vn -0.0000 -1.0000 -0.0000
vn 0.0000 1.0000 0.0000
usemtl Material.010
s 1
f 1/1/1 2/2/1 3/3/1 4/4/1
f 5/5/2 6/6/2 7/7/2 8/8/2
f 9/9/3 10/10/3 11/11/3 12/12/3
f 13/13/4 14/14/4 15/15/4 16/16/4
f 17/17/5 9/9/5 12/12/5 18/18/5
f 19/19/6 20/20/6 15/21/6 14/22/6
f 10/10/6 21/23/6 22/24/6 11/11/6
f 23/25/5 17/17/5 18/18/5 13/26/5
f 12/12/4 11/11/4 22/27/4 18/28/4
f 24/29/2 25/30/2 6/6/2 5/5/2
f 4/4/2 3/3/2 25/30/2 24/29/2
f 26/31/5 23/25/5 13/26/5 16/32/5
f 21/23/6 19/19/6 14/22/6 22/24/6
f 18/28/4 22/27/4 14/14/4 13/13/4
f 27/33/6 28/34/6 19/19/6 21/23/6
f 1/35/5 29/36/5 23/25/5 26/31/5
f 29/36/5 30/37/5 17/17/5 23/25/5
f 31/38/6 27/33/6 21/23/6 10/10/6
f 28/34/6 2/39/6 20/20/6 19/19/6
f 30/37/5 32/40/5 9/9/5 17/17/5
f 32/40/3 31/38/3 10/10/3 9/9/3
f 16/41/1 15/42/1 20/43/1 26/44/1
f 8/8/3 7/7/3 31/38/3 32/40/3
f 5/45/5 8/8/5 32/40/5 30/37/5
f 25/46/6 3/47/6 2/39/6 28/34/6
f 7/7/6 6/48/6 27/33/6 31/38/6
f 24/49/5 5/45/5 30/37/5 29/36/5
f 4/50/5 24/49/5 29/36/5 1/35/5
f 6/48/6 25/46/6 28/34/6 27/33/6
f 26/44/1 20/43/1 2/2/1 1/1/1
f 33/51/1 34/52/1 35/53/1 36/54/1
f 37/55/2 38/56/2 39/57/2 40/58/2
f 41/59/3 42/60/3 43/61/3 44/62/3
f 45/63/4 46/64/4 47/65/4 48/66/4
f 49/67/5 41/59/5 44/62/5 50/68/5
f 38/69/1 51/70/1 52/71/1 53/72/1
f 42/60/6 54/73/6 55/74/6 43/61/6
f 56/75/5 49/67/5 50/68/5 45/76/5
f 44/62/4 43/61/4 55/77/4 50/78/4
f 57/79/2 58/80/2 38/56/2 37/55/2
f 36/54/2 35/53/2 58/80/2 57/79/2
f 59/81/5 56/75/5 45/76/5 48/82/5
f 54/73/6 60/83/6 46/84/6 55/74/6
f 50/78/4 55/77/4 46/64/4 45/63/4
f 51/70/6 61/85/6 60/83/6 54/73/6
f 33/86/5 62/87/5 56/75/5 59/81/5
f 62/87/5 63/88/5 49/67/5 56/75/5
f 64/89/6 51/70/6 54/73/6 42/60/6
f 61/85/6 34/90/6 65/91/6 60/83/6
f 63/88/5 66/92/5 41/59/5 49/67/5
f 66/92/3 64/89/3 42/60/3 41/59/3
f 48/93/1 47/94/1 65/95/1 59/96/1
f 40/58/3 39/57/3 64/89/3 66/92/3
f 37/97/5 40/58/5 66/92/5 63/88/5
f 58/98/6 35/99/6 34/90/6 61/85/6
f 64/89/3 39/57/3 67/100/3 68/101/3
f 57/102/5 37/97/5 63/88/5 62/87/5
f 36/103/5 57/102/5 62/87/5 33/86/5
f 38/69/6 58/98/6 61/85/6 51/70/6
f 59/96/1 65/95/1 34/52/1 33/51/1
f 69/104/6 70/105/6 71/106/6 72/107/6
f 67/100/6 53/72/6 52/71/6 68/101/6
f 46/84/3 60/83/3 69/104/3 72/107/3
f 51/70/4 64/89/4 68/101/4 52/71/4
f 47/65/4 46/64/4 72/108/4 71/109/4
f 60/83/2 65/91/2 70/105/2 69/104/2
f 65/95/1 47/94/1 71/110/1 70/111/1
f 39/57/2 38/56/2 53/112/2 67/100/2
