# Blender v3.3.1 OBJ File: 'Furniture.blend'
# www.blender.org
mtllib SideTable.mtl
o Legs_Plane
v 0.904560 -0.002981 -0.809252
v 0.904560 -0.002981 -0.678475
v 0.986385 0.878140 -0.809252
v 0.904560 0.878140 -0.809252
v 0.904560 0.878140 -0.678475
v 0.986385 0.878140 -0.678475
v 0.986385 0.056173 -0.678475
v 0.904560 0.056173 -0.678475
v 0.904560 0.056173 -0.809252
v 0.986385 0.056173 -0.809252
v -0.874541 0.056173 -0.678475
v -0.874541 0.056173 -0.809252
v -0.804878 0.056173 -0.678475
v -0.804878 -0.002981 -0.678475
v -0.804878 0.056173 -0.809252
v -0.804878 -0.002981 -0.809252
v -0.874541 0.880366 -0.678475
v -0.874541 0.880366 -0.809252
v -0.804878 0.880366 -0.678475
v -0.804878 0.880366 -0.809252
v 0.904560 -0.002981 0.845948
v 0.904560 -0.002981 0.715171
v 0.986385 0.878140 0.845948
v 0.904560 0.878140 0.845948
v 0.904560 0.878140 0.715171
v 0.986385 0.878140 0.715171
v 0.986385 0.056173 0.715171
v 0.904560 0.056173 0.715171
v 0.904560 0.056173 0.845948
v 0.986385 0.056173 0.845948
v -0.874541 0.056173 0.715171
v -0.874541 0.056173 0.845948
v -0.804878 0.056173 0.715171
v -0.804878 -0.002981 0.715171
v -0.804878 0.056173 0.845948
v -0.804878 -0.002981 0.845948
v -0.874541 0.880366 0.715171
v -0.874541 0.880366 0.845948
v -0.804878 0.880366 0.715171
v -0.804878 0.880366 0.845948
v 0.986385 0.044318 -0.809252
v 0.939086 -0.002981 -0.809252
v 0.980049 0.020669 -0.809252
v 0.962736 0.003356 -0.809252
v 0.939086 -0.002981 -0.678475
v 0.986385 0.044318 -0.678475
v 0.962736 0.003356 -0.678475
v 0.980049 0.020669 -0.678475
v -0.827242 -0.002981 -0.809252
v -0.874541 0.044318 -0.809252
v -0.850892 0.003356 -0.809252
v -0.868204 0.020669 -0.809252
v -0.874541 0.044318 -0.678475
v -0.827242 -0.002981 -0.678475
v -0.868204 0.020669 -0.678475
v -0.850892 0.003356 -0.678475
v 0.939086 -0.002981 0.845948
v 0.986385 0.044318 0.845948
v 0.962736 0.003356 0.845948
v 0.980048 0.020669 0.845948
v 0.986385 0.044318 0.715171
v 0.939086 -0.002981 0.715171
v 0.980048 0.020669 0.715171
v 0.962736 0.003356 0.715171
v -0.874541 0.044318 0.845948
v -0.827242 -0.002981 0.845948
v -0.868204 0.020669 0.845948
v -0.850892 0.003356 0.845948
v -0.827242 -0.002981 0.715171
v -0.874541 0.044318 0.715171
v -0.850892 0.003356 0.715171
v -0.868204 0.020669 0.715171
vt 1.000000 1.000000
vt 0.000000 1.000000
vt 0.000000 1.000000
vt 1.000000 1.000000
vt 0.000000 0.000000
vt 1.000000 0.000000
vt 1.000000 1.000000
vt 0.000000 1.000000
vt 1.000000 0.000000
vt 0.000000 0.000000
vt 0.000000 0.421956
vt 0.000000 0.710978
vt 0.000000 0.974186
vt 0.000000 1.000000
vt 0.000000 1.000000
vt 0.000000 0.000000
vt 0.000000 0.000000
vt 1.000000 0.000000
vt 1.000000 0.421956
vt 1.000000 0.710978
vt 1.000000 0.974186
vt 0.000000 0.000000
vt 0.000000 0.421956
vt 0.000000 0.000000
vt 1.000000 0.000000
vt 1.000000 0.000000
vt 0.000000 0.000000
vt 0.000000 0.000000
vt 0.000000 0.000000
vt 0.000000 0.000000
vt 0.000000 0.000000
vt 0.000000 0.000000
vt 0.000000 0.000000
vt 0.000000 0.000000
vt 1.000000 0.000000
vt 1.000000 0.000000
vt 1.000000 0.000000
vt 1.000000 0.000000
vt 1.000000 0.000000
vt 1.000000 0.000000
vt 1.000000 0.000000
vt 1.000000 1.000000
vt 1.000000 1.000000
vt 0.000000 0.000000
vt 0.000000 1.000000
vt 1.000000 1.000000
vt 1.000000 0.000000
vt 1.000000 0.000000
vt 1.000000 0.000000
vt 1.000000 0.974186
vt 1.000000 0.710978
vt 1.000000 0.421956
vt 0.000000 0.000000
vt 0.000000 0.000000
vt 1.000000 0.000000
vt 1.000000 0.000000
vt 0.000000 0.000000
vt 0.000000 0.000000
vt 0.000000 0.000000
vt 0.000000 0.000000
vt 0.000000 0.000000
vt 0.000000 0.000000
vt 0.000000 0.000000
vt 1.000000 0.000000
vt 1.000000 0.000000
vt 1.000000 0.000000
vt 1.000000 0.000000
vt 1.000000 0.000000
vt 1.000000 0.000000
vt 1.000000 0.000000
vt 0.000000 0.710978
vt 0.000000 0.974186
vn 1.0000 0.0000 0.0000
vn 0.0000 1.0000 0.0000
vn 0.0000 0.0000 1.0000
vn 0.0000 0.0000 -1.0000
vn -1.0000 0.0000 0.0000
vn 0.0000 -1.0000 0.0000
vn 0.2588 -0.9659 -0.0000
vn 0.7071 -0.7071 -0.0000
vn 0.9659 -0.2588 -0.0000
vn -0.2588 -0.9659 0.0000
vn -0.7071 -0.7071 0.0000
vn -0.9659 -0.2588 0.0000
usemtl Material.001
s off
f 46/1/1 41/2/1 10/3/1 7/4/1
f 4/5/2 5/6/2 6/7/2 3/8/2
f 8/9/3 7/4/3 6/7/3 5/6/3
f 10/3/4 9/10/4 4/5/4 3/8/4
f 7/4/1 10/3/1 3/8/1 6/7/1
f 9/10/5 8/9/5 5/6/5 4/5/5
f 57/11/3 59/12/3 60/13/3 58/14/3 30/15/3 29/16/3 21/17/3
f 2/18/3 45/19/3 47/20/3 48/21/3 46/1/3 7/4/3 8/9/3
f 1/22/6 42/23/6 45/19/6 2/18/6
f 16/24/6 14/25/6 54/26/6 49/27/6
f 15/28/4 16/24/4 49/27/4 51/29/4 52/30/4 50/31/4 12/32/4
f 15/28/4 12/32/4 18/33/4 20/34/4
f 14/25/3 13/35/3 11/36/3 53/37/3 55/38/3 56/39/3 54/26/3
f 50/31/5 53/37/5 11/36/5 12/32/5
f 1/22/6 2/18/6 14/25/6 16/24/6
f 9/10/4 1/22/4 16/24/4 15/28/4
f 8/9/2 9/10/2 15/28/2 13/35/2
f 2/18/3 8/9/3 13/35/3 14/25/3
f 19/40/2 20/34/2 18/33/2 17/41/2
f 11/36/3 13/35/3 19/40/3 17/41/3
f 12/32/5 11/36/5 17/41/5 18/33/5
f 13/35/1 15/28/1 20/34/1 19/40/1
f 61/42/1 27/43/1 30/15/1 58/14/1
f 24/44/2 23/45/2 26/46/2 25/47/2
f 28/48/4 25/47/4 26/46/4 27/43/4
f 30/15/3 23/45/3 24/44/3 29/16/3
f 27/43/1 26/46/1 23/45/1 30/15/1
f 29/16/5 24/44/5 25/47/5 28/48/5
f 22/49/4 28/48/4 27/43/4 61/42/4 63/50/4 64/51/4 62/52/4
f 21/17/6 22/49/6 62/52/6 57/11/6
f 36/53/6 66/54/6 69/55/6 34/56/6
f 35/57/3 32/58/3 65/59/3 67/60/3 68/61/3 66/54/3 36/53/3
f 35/57/3 40/62/3 38/63/3 32/58/3
f 34/56/4 69/55/4 71/64/4 72/65/4 70/66/4 31/67/4 33/68/4
f 65/59/5 32/58/5 31/67/5 70/66/5
f 21/17/6 36/53/6 34/56/6 22/49/6
f 29/16/3 35/57/3 36/53/3 21/17/3
f 28/48/2 33/68/2 35/57/2 29/16/2
f 22/49/4 34/56/4 33/68/4 28/48/4
f 39/69/2 37/70/2 38/63/2 40/62/2
f 31/67/4 37/70/4 39/69/4 33/68/4
f 32/58/5 38/63/5 37/70/5 31/67/5
f 33/68/1 39/69/1 40/62/1 35/57/1
f 45/19/7 42/23/7 44/71/7 47/20/7
f 47/20/8 44/71/8 43/72/8 48/21/8
f 48/21/9 43/72/9 41/2/9 46/1/9
f 49/27/10 54/26/10 56/39/10 51/29/10
f 51/29/11 56/39/11 55/38/11 52/30/11
f 52/30/12 55/38/12 53/37/12 50/31/12
f 61/42/9 58/14/9 60/13/9 63/50/9
f 63/50/8 60/13/8 59/12/8 64/51/8
f 64/51/7 59/12/7 57/11/7 62/52/7
f 65/59/12 70/66/12 72/65/12 67/60/12
f 67/60/11 72/65/11 71/64/11 68/61/11
f 68/61/10 71/64/10 69/55/10 66/54/10
f 41/2/4 43/72/4 44/71/4 42/23/4 1/22/4 9/10/4 10/3/4
o Drawer_Cube.002
v -0.865293 1.877346 -0.830805
v -0.823027 2.633524 -0.788539
v 1.104386 2.208540 -0.042735
v 1.104386 2.302329 -0.042735
v -0.865293 1.877346 0.865355
v -0.823027 2.633524 0.823089
v 1.104386 2.208540 0.078953
v 1.104386 2.302329 0.078953
v 1.056205 1.877346 -0.830805
v 1.013939 2.633524 -0.788539
v 1.056205 1.877346 0.865355
v 1.013939 2.633524 0.823089
v 1.055641 2.670446 -0.913625
v 1.106738 2.670446 -0.913625
v 1.106738 1.840423 -0.913625
v 1.106738 1.840423 0.948175
v 1.106738 2.670446 0.948175
v 1.055641 1.840423 0.948175
v 1.055641 1.840423 -0.913625
v 1.055641 2.670446 0.948175
v 1.056205 2.633524 0.865355
v -0.865293 2.633524 0.865355
v -0.865293 2.633524 -0.830805
v 1.056205 2.633524 -0.830805
v 1.013939 1.915811 0.823089
v -0.823027 1.915811 0.823089
v -0.823027 1.915811 -0.788539
v 1.013939 1.915811 -0.788539
v 1.104386 2.633524 -0.830805
v 1.104386 1.877346 -0.830805
v 1.104386 1.877346 0.865355
v 1.104386 2.633524 0.865355
v 1.194369 2.302329 -0.042496
v 1.194369 2.208540 -0.042496
v 1.194369 2.208540 0.079192
v 1.194369 2.302329 0.079192
v 1.135880 2.302329 0.079192
v 1.135880 2.302329 -0.042496
v 1.135880 2.208540 -0.042496
v 1.135880 2.208540 0.079192
v 1.107810 2.292132 -0.029265
v 1.107810 2.218738 -0.029265
v 1.107810 2.218738 0.065961
v 1.107810 2.292132 0.065961
v 1.132456 2.292132 -0.029265
v 1.132456 2.218738 -0.029265
v 1.132456 2.292132 0.065961
v 1.132456 2.218738 0.065961
vt 0.375000 0.243885
vt 0.625000 0.243885
vt 0.625000 0.243885
vt 0.375000 0.243885
vt 0.515504 0.298815
vt 0.515504 0.451185
vt 0.515504 0.451185
vt 0.515504 0.298815
vt 0.375000 0.506115
vt 0.625000 0.506115
vt 0.625000 0.750000
vt 0.375000 0.750000
vt 0.625000 1.000000
vt 0.375000 1.000000
vt 0.125000 0.506115
vt 0.125000 0.750000
vt 0.868770 0.744635
vt 0.631230 0.744635
vt 0.631230 0.744635
vt 0.868770 0.744635
vt 0.625000 0.250000
vt 0.375000 0.250000
vt 0.375000 0.250000
vt 0.625000 0.250000
vt 0.625000 0.500000
vt 0.625000 0.500000
vt 0.875000 0.506115
vt 0.625000 0.506115
vt 0.875000 0.506115
vt 0.375000 0.000000
vt 0.625000 0.000000
vt 0.875000 0.500000
vt 0.125000 0.500000
vt 0.375000 0.500000
vt 0.375000 0.506115
vt 0.125000 0.506115
vt 0.375000 0.500000
vt 0.631230 0.511480
vt 0.875000 0.750000
vt 0.868770 0.511480
vt 0.631230 0.511480
vt 0.868770 0.511480
vt 0.515504 0.298815
vt 0.484496 0.298815
vt 0.484496 0.451185
vt 0.515504 0.451185
vt 0.484496 0.298815
vt 0.484496 0.451185
vt 0.484496 0.298815
vt 0.484496 0.451185
vt 0.484496 0.451185
vt 0.484496 0.298815
vt 0.515504 0.298815
vt 0.484496 0.298815
vt 0.515504 0.298815
vt 0.515504 0.451185
vt 0.484496 0.451185
vt 0.515504 0.451185
vn -1.0000 0.0000 0.0068
vn 0.0000 1.0000 0.0000
vn -0.0000 0.0000 1.0000
vn -1.0000 0.0000 0.0000
vn 0.0000 -1.0000 0.0000
vn 1.0000 0.0000 0.0000
vn 0.9996 0.0000 0.0284
vn 0.9980 -0.0636 0.0000
vn -0.9999 -0.0153 -0.0000
vn 0.0000 0.0000 -1.0000
vn -0.9999 0.0153 -0.0000
vn 0.9996 0.0000 -0.0284
vn 0.9980 0.0636 0.0000
vn -1.0000 0.0000 -0.0068
vn -0.9480 -0.3183 0.0000
vn 0.9692 0.0000 -0.2464
vn -0.9681 0.0000 -0.2506
vn 0.9480 0.3183 0.0000
vn 0.9670 0.0000 0.2549
vn -0.9480 0.3183 0.0000
vn 0.9480 -0.3183 0.0000
vn -0.9681 0.0000 0.2506
usemtl Material.003
s off
f 81/73/13 96/74/13 85/75/13 91/76/13
f 110/77/14 109/78/14 108/79/14 105/80/14
f 83/81/15 93/82/15 94/83/15 77/84/15
f 77/84/16 94/83/16 95/85/16 73/86/16
f 81/87/17 83/81/17 77/84/17 73/88/17
f 74/89/18 78/90/18 98/91/18 99/92/18
f 101/93/19 102/94/19 87/95/19 86/96/19
f 104/97/20 101/93/20 86/96/20 89/98/20
f 96/99/21 93/82/21 92/100/21 85/101/21
f 73/102/22 95/103/22 96/74/22 81/73/22
f 91/76/22 85/75/22 86/96/22 87/95/22
f 89/98/14 86/104/14 85/101/14 92/100/14
f 87/105/17 88/106/17 90/107/17 91/108/17
f 88/106/15 89/98/15 92/100/15 90/107/15
f 83/81/23 81/87/23 91/108/23 90/107/23
f 103/109/24 104/97/24 89/98/24 88/106/24
f 102/94/25 103/109/25 88/106/25 87/95/25
f 93/82/26 83/81/26 90/107/26 92/100/26
f 84/110/14 78/90/14 94/83/14 93/82/14
f 78/90/14 74/89/14 95/111/14 94/83/14
f 74/89/14 82/112/14 96/99/14 95/111/14
f 82/112/14 84/110/14 93/82/14 96/99/14
f 97/113/14 100/114/14 99/92/14 98/91/14
f 82/112/15 74/89/15 99/92/15 100/114/15
f 78/90/22 84/110/22 97/113/22 98/91/22
f 84/110/16 82/112/16 100/114/16 97/113/16
f 76/115/18 75/116/18 102/94/18 101/93/18
f 75/116/18 79/117/18 103/109/18 102/94/18
f 80/118/18 76/115/18 101/93/18 104/97/18
f 79/117/18 80/118/18 104/97/18 103/109/18
f 106/119/18 105/80/18 108/79/18 107/120/18
f 111/121/22 110/77/22 105/80/22 106/119/22
f 109/78/15 112/122/15 107/120/15 108/79/15
f 112/122/17 111/121/17 106/119/17 107/120/17
f 111/121/27 112/122/27 120/123/27 118/124/27
f 75/116/28 76/115/28 113/125/28 114/126/28
f 110/77/29 111/121/29 118/124/29 117/127/29
f 76/115/30 80/118/30 116/128/30 113/125/30
f 115/129/17 114/126/17 118/124/17 120/123/17
f 116/128/15 115/129/15 120/123/15 119/130/15
f 114/126/22 113/125/22 117/127/22 118/124/22
f 113/125/14 116/128/14 119/130/14 117/127/14
f 80/118/31 79/117/31 115/129/31 116/128/31
f 109/78/32 110/77/32 117/127/32 119/130/32
f 79/117/33 75/116/33 114/126/33 115/129/33
f 112/122/34 109/78/34 119/130/34 120/123/34
o Frame_Cube.007
v -0.944089 2.878144 -0.981652
v 1.055911 0.979913 -0.879883
v 1.055911 2.878144 -0.981652
v -0.944089 2.878144 1.018348
v 1.055911 0.979913 0.916578
v 1.055911 2.878144 1.018348
v 1.055911 1.878490 -0.830111
v 1.055911 1.878490 0.866807
v 1.055911 2.631564 -0.831151
v 1.055911 2.631564 0.865986
v -0.870262 1.822519 -0.879883
v -0.870262 0.979913 -0.879883
v -0.870262 0.979913 0.916578
v -0.870262 1.822519 0.916578
v 1.055911 1.822519 -0.879883
v 1.055911 1.822519 0.916578
v -0.866536 2.631564 -0.831151
v -0.866536 2.631564 0.865986
v -0.866536 1.878490 -0.830111
v -0.866536 1.878490 0.866807
v -1.074657 2.687699 -1.126156
v -1.074720 2.675086 -1.112283
v -1.088593 2.687699 -1.112220
v -1.088593 2.877980 -1.112220
v -1.074720 2.890593 -1.112283
v -1.074657 2.877980 -1.126156
v 1.186541 2.890593 -1.112283
v 1.200414 2.877980 -1.112220
v 1.186478 2.877980 -1.126156
v 1.200414 2.877980 1.148916
v 1.186541 2.890593 1.148979
v 1.186478 2.877980 1.162851
v -1.074657 2.877980 1.162851
v -1.074720 2.890593 1.148979
v -1.088593 2.877980 1.148916
v 1.186478 2.687699 -1.126156
v 1.200414 2.687699 -1.112220
v 1.186541 2.675086 -1.112283
v 1.200414 2.687699 1.148916
v 1.186478 2.687699 1.162851
v 1.186541 2.675086 1.148979
v -1.074657 2.687699 1.162851
v -1.088593 2.687699 1.148916
v -1.074720 2.675086 1.148979
v -0.923974 0.898259 -0.981652
v -0.923974 0.878144 -0.961537
v -0.944089 0.898259 -0.961537
v -0.923974 0.878144 0.998232
v -0.923974 0.898259 1.018348
v -0.944089 0.898259 0.998232
v -0.923974 2.687535 -0.981652
v -0.944089 2.687535 -0.961537
v -0.958281 2.686182 -0.995844
v -0.944089 2.687535 0.998232
v -0.923974 2.687535 1.018348
v -0.958281 2.686182 1.032540
v 1.035795 0.878144 -0.961536
v 1.035795 0.898259 -0.981652
v 1.055911 0.898259 -0.961536
v 1.055911 0.898259 0.998232
v 1.035795 0.898259 1.018348
v 1.035795 0.878144 0.998232
v 1.055911 2.516556 -0.961536
v 1.035795 2.687535 -0.981652
v 1.070102 2.686182 -0.995844
v 1.055911 2.687535 -0.961536
v 1.055911 2.680523 -0.962798
v 1.035795 2.687535 1.018348
v 1.055911 2.516556 0.998232
v 1.055911 2.680599 0.999466
v 1.055911 2.687535 0.998232
v 1.070102 2.686182 1.032540
vt 0.625000 0.750000
vt 0.875000 0.750000
vt 0.875000 0.750000
vt 0.625000 0.750000
vt 0.602696 0.501522
vt 0.623478 0.501522
vt 0.623478 0.748478
vt 0.602696 0.748478
vt 0.875000 0.500000
vt 0.875000 0.500000
vt 0.377514 0.752514
vt 0.601174 0.752514
vt 0.601174 0.997486
vt 0.377514 0.997486
vt 0.625000 0.500000
vt 0.377514 0.502514
vt 0.601174 0.502514
vt 0.601174 0.747486
vt 0.377514 0.747486
vt 0.601174 1.000000
vt 0.601174 0.750000
vt 0.601174 0.750000
vt 0.601174 1.000000
vt 0.588453 0.262721
vt 0.588453 0.487279
vt 0.588453 0.487279
vt 0.588453 0.262721
vt 0.127514 0.502514
vt 0.372485 0.502514
vt 0.372486 0.747486
vt 0.127514 0.747486
vt 0.602696 0.751522
vt 0.623478 0.751522
vt 0.623478 0.998478
vt 0.602696 0.998478
vt 0.625000 0.500000
vt 0.589276 0.481057
vt 0.600351 0.492132
vt 0.601072 0.499025
vt 0.598660 0.497486
vt 0.601174 0.500000
vt 0.601174 0.500000
vt 0.387721 0.262721
vt 0.377514 0.252514
vt 0.598660 0.252514
vt 0.602696 0.001522
vt 0.623478 0.001522
vt 0.623478 0.248478
vt 0.602696 0.248478
vt 0.602696 0.251522
vt 0.623478 0.251522
vt 0.623478 0.498478
vt 0.602696 0.498478
vt 0.387721 0.487279
vt 0.377514 0.497486
vt 0.600351 0.257868
vt 0.601071 0.250986
vt 0.601174 0.252514
vt 0.601174 0.497486
vt 0.589276 0.481057
vt 0.600351 0.492132
vt 0.387721 0.262721
vt 0.387721 0.487279
vt 0.589276 0.268943
vt 0.601174 0.250000
vt 0.601174 0.250000
vt 0.589276 0.268943
vt 0.600351 0.257868
vt 0.601318 0.001515
vt 0.602696 0.000000
vt 0.624856 0.998485
vt 0.623478 1.000000
vt 0.624856 0.251515
vt 0.623478 0.250000
vt 0.624856 0.498485
vt 0.623478 0.500000
vt 0.624856 0.748485
vt 0.623478 0.750000
vt 0.623478 0.000000
vt 0.625000 0.001515
vt 0.625000 0.248485
vt 0.625000 0.251515
vt 0.625000 0.498485
vt 0.625000 0.751515
vt 0.625000 0.998485
vt 0.601174 0.000000
vt 0.601174 0.247486
vt 0.601174 0.002514
vt 0.601174 0.000000
vt 0.125000 0.747486
vt 0.127514 0.750000
vt 0.375000 0.747486
vt 0.372486 0.750000
vt 0.601174 0.000000
vt 0.601174 0.750000
vt 0.125000 0.502514
vt 0.127514 0.500000
vt 0.372486 0.500000
vt 0.375000 0.502514
vt 0.601174 0.250000
vt 0.579801 0.500000
vt 0.377514 0.247486
vt 0.377514 0.000000
vt 0.377514 0.002514
vn 0.0949 0.9955 -0.0000
vn 0.0000 0.0000 1.0000
vn -0.0000 0.9955 0.0949
vn -1.0000 0.0000 -0.0000
vn 0.0000 1.0000 0.0000
vn 0.0949 -0.9955 0.0000
vn 0.0000 -1.0000 0.0000
vn 0.0000 0.9955 -0.0949
vn 1.0000 -0.0000 0.0000
vn 0.0000 -0.9955 -0.0949
vn -0.0949 0.9955 0.0000
vn 0.0000 0.0000 -1.0000
vn 0.0000 -0.0011 -1.0000
vn -0.0949 -0.9955 0.0000
vn -0.0000 0.0014 1.0000
vn -0.5591 -0.6122 -0.5591
vn -0.5591 0.6122 -0.5591
vn 0.5591 0.6122 -0.5591
vn 0.5591 0.6122 0.5591
vn -0.5591 0.6122 0.5591
vn 0.5591 -0.6122 -0.5591
vn 0.5591 -0.6122 0.5591
vn -0.5591 -0.6122 0.5591
vn -0.7071 0.0000 -0.7071
vn 0.0000 0.7399 -0.6727
vn 0.6727 0.7399 0.0000
vn 0.0000 0.7399 0.6727
vn -0.6727 0.7399 0.0000
vn 0.7071 0.0000 -0.7071
vn 0.7071 0.0000 0.7071
vn -0.7071 0.0000 0.7071
vn -0.6727 -0.7399 0.0000
vn 0.0000 -0.7399 0.6727
vn 0.6727 -0.7399 0.0000
vn 0.0000 -0.7399 -0.6727
vn 0.0000 -0.9955 0.0949
vn -0.5774 -0.5774 -0.5774
vn -0.5774 -0.5774 0.5773
vn 0.0279 -0.9992 0.0279
vn 0.0279 -0.9992 -0.0279
vn 0.5774 -0.5773 -0.5773
vn 0.5774 -0.5774 0.5774
vn 0.6693 -0.2043 -0.7144
vn 0.6698 -0.2041 0.7139
vn 0.0000 -0.7071 -0.7071
vn 0.7071 -0.7071 0.0000
vn 0.0000 -0.7071 0.7071
vn -0.7071 -0.7071 -0.0000
usemtl Material.009
s off
f 124/131/35 121/132/35 145/133/35 154/134/35
f 160/135/36 152/136/36 153/137/36 162/138/36
f 121/132/37 123/139/37 147/140/37 145/133/37
f 170/141/38 174/142/38 172/143/38 167/144/38
f 126/145/39 123/139/39 121/132/39 124/131/39
f 181/146/36 188/147/36 175/148/36 169/149/36
f 173/150/40 172/143/40 174/142/40 176/151/40 164/152/40 142/153/40
f 135/154/41 136/155/41 134/156/41 131/157/41
f 177/158/41 182/159/41 168/160/41 166/161/41
f 163/162/38 155/163/38 144/164/38 143/165/38
f 126/145/42 124/131/42 154/134/42 151/166/42
f 128/167/43 130/168/43 190/169/43 189/170/43 136/155/43
f 176/151/44 175/148/44 188/147/44 192/171/44 161/172/44 164/152/44
f 123/139/45 126/145/45 151/166/45 147/140/45
f 135/154/43 122/173/43 179/174/43 183/175/43
f 141/176/46 146/177/46 149/178/46 156/179/46
f 157/180/43 148/181/43 150/182/43 159/183/43
f 122/173/43 125/184/43 180/185/43 179/174/43
f 125/184/43 136/155/43 189/170/43 180/185/43
f 130/168/43 129/186/43 187/187/43 186/188/43 191/189/43 190/169/43
f 130/168/47 128/167/47 140/190/47 138/191/47
f 132/192/43 131/157/43 134/156/43 133/193/43
f 125/184/39 122/173/39 132/192/39 133/193/39
f 136/155/46 125/184/46 133/193/46 134/156/46
f 122/173/36 135/154/36 131/157/36 132/192/36
f 129/186/43 127/194/43 135/154/43 183/175/43 187/187/43
f 127/194/43 128/167/43 136/155/43 135/154/43
f 192/171/48 191/189/48 186/188/48 185/195/48 158/196/48 161/172/48
f 140/190/43 139/197/43 137/198/43 138/191/43
f 128/167/39 127/194/39 139/197/39 140/190/39
f 127/194/49 129/186/49 137/198/49 139/197/49
f 129/186/41 130/168/41 138/191/41 137/198/41
f 141/176/50 142/199/50 143/200/50
f 144/164/51 145/201/51 146/202/51
f 147/203/52 148/181/52 149/204/52
f 150/182/53 151/205/53 152/206/53
f 153/137/54 154/207/54 155/208/54
f 156/179/55 157/180/55 158/196/55
f 159/183/56 160/135/56 161/172/56
f 162/138/57 163/162/57 164/152/57
f 143/200/58 144/209/58 146/177/58 141/176/58
f 145/210/59 147/211/59 149/178/59 146/177/59
f 147/212/60 151/213/60 150/182/60 148/181/60
f 151/166/61 154/134/61 153/137/61 152/136/61
f 154/214/62 145/215/62 144/164/62 155/163/62
f 148/181/63 157/180/63 156/179/63 149/178/63
f 152/136/64 160/135/64 159/183/64 150/182/64
f 155/163/65 163/162/65 162/138/65 153/137/65
f 163/162/66 143/165/66 142/153/66 164/152/66
f 160/135/67 162/138/67 164/152/67 161/172/67
f 157/180/68 159/183/68 161/172/68 158/196/68
f 141/176/69 156/179/69 158/196/69 142/216/69
f 185/195/70 184/217/70 171/218/70 173/219/70 142/216/70 158/196/70
f 165/220/71 166/161/71 167/221/71
f 168/160/72 169/222/72 170/223/72
f 171/218/73 172/224/73 173/219/73
f 174/142/74 175/225/74 176/151/74
f 177/158/75 178/226/75 179/227/75
f 180/228/76 181/229/76 182/159/76
f 183/175/77 184/230/77 185/195/77 186/188/77 187/187/77
f 188/147/78 189/231/78 190/169/78 191/189/78 192/171/78
f 177/158/79 166/161/79 165/220/79 178/226/79
f 183/175/63 179/174/63 178/232/63 184/217/63
f 182/159/80 177/158/80 179/227/80 180/228/80
f 188/147/64 181/146/64 180/185/64 189/170/64
f 168/160/81 182/159/81 181/146/81 169/149/81
f 174/142/65 170/141/65 169/149/65 175/148/65
f 166/161/82 168/160/82 170/223/82 167/221/82
f 167/233/58 172/224/58 171/218/58 165/234/58
f 165/234/46 171/218/46 184/217/46 178/232/46
