#
#
#

mtllib TranslationHandle.mtl


#
# UnrealEdObject 메시
#
g UnrealEdObject 메시

v 1.100000 -0.007654 -0.018478
v 1.100000 -0.070711 -0.070711
v 1.100000 -0.014142 -0.014142
v 1.100000 -0.100000 -0.000000
v 1.100000 -0.018478 0.007654
v 1.100000 -0.020000 -0.000000
v 1.100000 0.018478 -0.007654
v 1.100000 0.070711 -0.070711
v 1.100000 0.014142 -0.014142
v 1.100000 0.014142 -0.014142
v 1.100000 0.038268 -0.092388
v 1.100000 0.007654 -0.018478
v 1.100000 0.007654 -0.018478
v 1.100000 0.000000 -0.100000
v 1.100000 -0.000000 -0.020000
v 1.100000 -0.000000 -0.020000
v 1.100000 -0.038268 -0.092388
v 1.100000 -0.007654 -0.018478
v 1.100000 -0.014142 -0.014142
v 1.100000 -0.092388 -0.038268
v 1.100000 -0.018478 -0.007654
v 1.100000 -0.092388 -0.038268
v 1.100000 -0.020000 -0.000000
v 1.100000 -0.018478 -0.007654
v 1.100000 -0.018478 0.007654
v 1.100000 -0.092388 0.038268
v 1.100000 -0.014142 0.014142
v 1.100000 -0.092388 0.038268
v 1.100000 -0.070711 0.070711
v 1.100000 -0.014142 0.014142
v 1.100000 -0.014142 0.014142
v 1.100000 -0.070711 0.070711
v 1.100000 -0.007654 0.018478
v 1.100000 -0.038268 0.092388
v 1.100000 -0.007654 0.018478
v 1.100000 -0.070711 0.070711
v 1.100000 -0.038268 0.092388
v 1.100000 -0.000000 0.020000
v 1.100000 -0.007654 0.018478
v 1.100000 0.000000 0.100000
v 1.100000 -0.000000 0.020000
v 1.100000 -0.038268 0.092388
v 1.100000 0.000000 0.100000
v 1.100000 0.007654 0.018478
v 1.100000 -0.000000 0.020000
v 1.100000 0.007654 0.018478
v 1.100000 0.000000 0.100000
v 1.100000 0.038268 0.092388
v 1.100000 0.038268 0.092388
v 1.100000 0.014142 0.014142
v 1.100000 0.007654 0.018478
v 1.100000 0.014142 0.014142
v 1.100000 0.038268 0.092388
v 1.100000 0.070711 0.070711
v 1.100000 0.014142 0.014142
v 1.100000 0.070711 0.070711
v 1.100000 0.018478 0.007654
v 1.100000 0.070711 0.070711
v 1.100000 0.092388 0.038268
v 1.100000 0.018478 0.007654
v 1.100000 0.018478 0.007654
v 1.100000 0.092388 0.038268
v 1.100000 0.020000 -0.000000
v 1.100000 0.100000 -0.000000
v 1.100000 0.020000 -0.000000
v 1.100000 0.092388 0.038268
v 1.100000 0.092388 -0.038268
v 1.100000 0.020000 -0.000000
v 1.100000 0.100000 -0.000000
v 1.100000 0.020000 -0.000000
v 1.100000 0.092388 -0.038268
v 1.100000 0.018478 -0.007654
v 1.100000 -0.007654 -0.018478
v 0.100000 0.000000 -0.020000
v 1.100000 -0.000000 -0.020000
v 0.100000 0.000000 -0.020000
v 1.100000 -0.007654 -0.018478
v 0.100000 -0.007654 -0.018478
v 1.100000 -0.014142 -0.014142
v 0.100000 -0.007654 -0.018478
v 1.100000 -0.007654 -0.018478
v 0.100000 -0.007654 -0.018478
v 1.100000 -0.014142 -0.014142
v 0.100000 -0.014142 -0.014142
v 1.100000 -0.018478 -0.007654
v 0.100000 -0.014142 -0.014142
v 1.100000 -0.014142 -0.014142
v 0.100000 -0.014142 -0.014142
v 1.100000 -0.018478 -0.007654
v 0.100000 -0.018478 -0.007654
v 1.100000 -0.020000 -0.000000
v 0.100000 -0.018478 -0.007654
v 1.100000 -0.018478 -0.007654
v 0.100000 -0.018478 -0.007654
v 1.100000 -0.020000 -0.000000
v 0.100000 -0.020000 0.000000
v 1.100000 -0.018478 0.007654
v 0.100000 -0.020000 0.000000
v 1.100000 -0.020000 -0.000000
v 0.100000 -0.020000 0.000000
v 1.100000 -0.018478 0.007654
v 0.100000 -0.018478 0.007654
v 1.100000 -0.014142 0.014142
v 0.100000 -0.018478 0.007654
v 1.100000 -0.018478 0.007654
v 0.100000 -0.018478 0.007654
v 1.100000 -0.014142 0.014142
v 0.100000 -0.014142 0.014142
v 1.100000 -0.007654 0.018478
v 0.100000 -0.014142 0.014142
v 1.100000 -0.014142 0.014142
v 0.100000 -0.014142 0.014142
v 1.100000 -0.007654 0.018478
v 0.100000 -0.007654 0.018478
v 1.100000 -0.000000 0.020000
v 0.100000 -0.007654 0.018478
v 1.100000 -0.007654 0.018478
v 0.100000 -0.007654 0.018478
v 1.100000 -0.000000 0.020000
v 0.100000 0.000000 0.020000
v 1.100000 0.007654 0.018478
v 0.100000 0.000000 0.020000
v 1.100000 -0.000000 0.020000
v 0.100000 0.000000 0.020000
v 1.100000 0.007654 0.018478
v 0.100000 0.007654 0.018478
v 1.100000 0.014142 0.014142
v 0.100000 0.007654 0.018478
v 1.100000 0.007654 0.018478
v 0.100000 0.007654 0.018478
v 1.100000 0.014142 0.014142
v 0.100000 0.014142 0.014142
v 1.100000 0.018478 0.007654
v 0.100000 0.014142 0.014142
v 1.100000 0.014142 0.014142
v 0.100000 0.014142 0.014142
v 1.100000 0.018478 0.007654
v 0.100000 0.018478 0.007654
v 1.100000 0.020000 -0.000000
v 0.100000 0.018478 0.007654
v 1.100000 0.018478 0.007654
v 0.100000 0.018478 0.007654
v 1.100000 0.020000 -0.000000
v 0.100000 0.020000 0.000000
v 1.100000 0.018478 -0.007654
v 0.100000 0.020000 0.000000
v 1.100000 0.020000 -0.000000
v 0.100000 0.020000 0.000000
v 1.100000 0.018478 -0.007654
v 0.100000 0.018478 -0.007654
v 1.100000 0.014142 -0.014142
v 0.100000 0.018478 -0.007654
v 1.100000 0.018478 -0.007654
v 0.100000 0.018478 -0.007654
v 1.100000 0.014142 -0.014142
v 0.100000 0.014142 -0.014142
v 1.100000 0.007654 -0.018478
v 0.100000 0.014142 -0.014142
v 1.100000 0.014142 -0.014142
v 0.100000 0.014142 -0.014142
v 1.100000 0.007654 -0.018478
v 0.100000 0.007654 -0.018478
v 1.100000 -0.000000 -0.020000
v 0.100000 0.007654 -0.018478
v 1.100000 0.007654 -0.018478
v 0.100000 0.007654 -0.018478
v 1.100000 -0.000000 -0.020000
v 0.100000 0.000000 -0.020000
v 1.100000 -0.018478 0.007654
v 1.100000 -0.100000 -0.000000
v 1.100000 -0.092388 0.038268
v 1.100000 -0.020000 -0.000000
v 1.100000 -0.092388 -0.038268
v 1.100000 -0.100000 -0.000000
v 1.100000 -0.100000 -0.000000
v 1.380000 -0.000000 -0.000000
v 1.100000 -0.092388 0.038268
v 1.100000 -0.092388 -0.038268
v 1.380000 -0.000000 -0.000000
v 1.100000 -0.100000 -0.000000
v 1.100000 -0.092388 0.038268
v 1.380000 -0.000000 -0.000000
v 1.100000 -0.070711 0.070711
v 1.100000 -0.070711 0.070711
v 1.380000 -0.000000 -0.000000
v 1.100000 -0.038268 0.092388
v 1.100000 -0.038268 0.092388
v 1.380000 -0.000000 -0.000000
v 1.100000 0.000000 0.100000
v 1.100000 0.000000 0.100000
v 1.380000 -0.000000 -0.000000
v 1.100000 0.038268 0.092388
v 1.100000 0.038268 0.092388
v 1.380000 -0.000000 -0.000000
v 1.100000 0.070711 0.070711
v 1.100000 0.070711 0.070711
v 1.380000 -0.000000 -0.000000
v 1.100000 0.092388 0.038268
v 1.100000 0.092388 0.038268
v 1.380000 -0.000000 -0.000000
v 1.100000 0.100000 -0.000000
v 1.100000 0.100000 -0.000000
v 1.380000 -0.000000 -0.000000
v 1.100000 0.092388 -0.038268
v 1.100000 0.070711 -0.070711
v 1.100000 0.018478 -0.007654
v 1.100000 0.092388 -0.038268
v 1.100000 0.092388 -0.038268
v 1.380000 -0.000000 -0.000000
v 1.100000 0.070711 -0.070711
v 1.100000 0.038268 -0.092388
v 1.100000 0.014142 -0.014142
v 1.100000 0.070711 -0.070711
v 1.100000 0.070711 -0.070711
v 1.380000 -0.000000 -0.000000
v 1.100000 0.038268 -0.092388
v 1.100000 0.000000 -0.100000
v 1.100000 0.007654 -0.018478
v 1.100000 0.038268 -0.092388
v 1.100000 0.038268 -0.092388
v 1.380000 -0.000000 -0.000000
v 1.100000 0.000000 -0.100000
v 1.100000 -0.038268 -0.092388
v 1.100000 -0.000000 -0.020000
v 1.100000 0.000000 -0.100000
v 1.100000 0.000000 -0.100000
v 1.380000 -0.000000 -0.000000
v 1.100000 -0.038268 -0.092388
v 1.100000 -0.038268 -0.092388
v 1.380000 -0.000000 -0.000000
v 1.100000 -0.070711 -0.070711
v 1.100000 -0.070711 -0.070711
v 1.100000 -0.007654 -0.018478
v 1.100000 -0.038268 -0.092388
v 1.100000 -0.070711 -0.070711
v 1.380000 -0.000000 -0.000000
v 1.100000 -0.092388 -0.038268
v 1.100000 -0.092388 -0.038268
v 1.100000 -0.014142 -0.014142
v 1.100000 -0.070711 -0.070711
v 0.100000 0.000000 -0.020000
v 0.100000 -0.007654 -0.018478
v 0.100000 0.000000 0.000000
v 0.100000 0.007654 -0.018478
v 0.100000 0.000000 -0.020000
v 0.100000 0.000000 0.000000
v 0.100000 -0.007654 -0.018478
v 0.100000 -0.014142 -0.014142
v 0.100000 0.000000 0.000000
v 0.100000 0.014142 -0.014142
v 0.100000 0.007654 -0.018478
v 0.100000 0.000000 0.000000
v 0.100000 -0.014142 -0.014142
v 0.100000 -0.018478 -0.007654
v 0.100000 0.000000 0.000000
v 0.100000 0.018478 -0.007654
v 0.100000 0.014142 -0.014142
v 0.100000 0.000000 0.000000
v 0.100000 -0.018478 -0.007654
v 0.100000 -0.020000 0.000000
v 0.100000 0.000000 0.000000
v 0.100000 0.020000 0.000000
v 0.100000 0.018478 -0.007654
v 0.100000 0.000000 0.000000
v 0.100000 -0.020000 0.000000
v 0.100000 -0.018478 0.007654
v 0.100000 0.000000 0.000000
v 0.100000 0.018478 0.007654
v 0.100000 0.020000 0.000000
v 0.100000 0.000000 0.000000
v 0.100000 -0.018478 0.007654
v 0.100000 -0.014142 0.014142
v 0.100000 0.000000 0.000000
v 0.100000 0.014142 0.014142
v 0.100000 0.018478 0.007654
v 0.100000 0.000000 0.000000
v 0.100000 -0.014142 0.014142
v 0.100000 -0.007654 0.018478
v 0.100000 0.000000 0.000000
v 0.100000 0.007654 0.018478
v 0.100000 0.014142 0.014142
v 0.100000 0.000000 0.000000
v 0.100000 -0.007654 0.018478
v 0.100000 0.000000 0.020000
v 0.100000 0.000000 0.000000
v 0.100000 0.000000 0.020000
v 0.100000 0.007654 0.018478
v 0.100000 0.000000 0.000000
vn -1.000000 -0.000019 -0.000001
vn -1.000000 -0.000002 0.000000
vn -1.000000 -0.000002 0.000007
vn -1.000000 -0.000001 -0.000001
vn -1.000000 -0.000011 -0.000001
vn -1.000000 0.000011 -0.000001
vn -1.000000 0.000000 -0.000001
vn -1.000000 0.000000 -0.000000
vn -1.000000 -0.000005 0.000001
vn -1.000000 -0.000002 0.000001
vn -1.000000 0.000017 0.000008
vn -1.000000 -0.000001 0.000000
vn -1.000000 0.000000 0.000000
vn -1.000000 -0.000002 0.000000
vn -1.000000 0.000004 0.000000
vn -1.000000 -0.000020 0.000000
vn -1.000000 -0.000005 0.000000
vn -1.000000 0.000004 0.000000
vn -1.000000 -0.000012 0.000000
vn -0.000000 -0.195090 -0.980785
vn -0.000000 -0.195090 -0.980785
vn -0.000000 -0.555570 -0.831470
vn -0.000000 -0.555571 -0.831469
vn -0.000000 -0.831470 -0.555570
vn -0.000000 -0.831469 -0.555571
vn -0.000000 -0.980785 -0.195090
vn -0.000000 -0.980785 -0.195091
vn -0.000000 -0.980785 0.195090
vn -0.000000 -0.980785 0.195091
vn -0.000000 -0.831470 0.555570
vn -0.000000 -0.831470 0.555570
vn 0.000000 -0.555570 0.831470
vn 0.000000 -0.555570 0.831470
vn 0.000000 -0.195090 0.980785
vn 0.000000 -0.195090 0.980785
vn 0.000000 0.195090 0.980785
vn 0.000000 0.195090 0.980785
vn 0.000000 0.555571 0.831469
vn 0.000000 0.555570 0.831470
vn 0.000000 0.831469 0.555571
vn 0.000000 0.831470 0.555570
vn 0.000000 0.980785 0.195091
vn 0.000000 0.980785 0.195090
vn 0.000000 0.980785 -0.195091
vn 0.000000 0.980785 -0.195090
vn 0.000000 0.831470 -0.555569
vn 0.000000 0.831470 -0.555570
vn -0.000000 0.555570 -0.831470
vn -0.000000 0.555570 -0.831470
vn -0.000000 0.195090 -0.980785
vn -0.000000 0.195090 -0.980785
vn -1.000000 0.000002 0.000000
vn -1.000000 0.000000 -0.000000
vn 0.330586 -0.925642 0.184121
vn 0.330586 -0.925641 -0.184122
vn 0.330586 -0.784720 0.524335
vn 0.330586 -0.524334 0.784721
vn 0.330586 -0.184122 0.925641
vn 0.330586 0.184122 0.925641
vn 0.330586 0.524334 0.784721
vn 0.330587 0.784720 0.524335
vn 0.330586 0.925642 0.184121
vn 0.330586 0.925641 -0.184122
vn -1.000000 0.000002 0.000000
vn 0.330586 0.784721 -0.524333
vn -1.000000 0.000000 -0.000001
vn 0.330586 0.524333 -0.784721
vn -1.000000 0.000002 -0.000001
vn 0.330586 0.184122 -0.925641
vn -1.000000 -0.000001 -0.000001
vn 0.330586 -0.184122 -0.925641
vn 0.330586 -0.524333 -0.784721
vn -1.000000 0.000002 -0.000001
vn 0.330586 -0.784721 -0.524333
vn -1.000000 0.000000 -0.000001
vn -1.000000 -0.000001 0.000000
vn -1.000000 0.000001 0.000000
vt 0.937500 1.000000
vt 0.419678 0.419922
vt 0.875000 1.000000
vt 0.489990 0.250000
vt 0.687500 1.000000
vt 0.750000 1.000000
vt 0.187500 1.000000
vt 0.080261 0.419922
vt 0.125000 1.000000
vt 0.158081 0.472168
vt 0.062500 1.000000
vt 0.250000 0.490234
vt 0.000000 1.000000
vt 1.000000 1.000000
vt 0.341797 0.472168
vt 0.471680 0.342285
vt 0.812500 1.000000
vt 0.471680 0.158203
vt 0.625000 1.000000
vt 0.419678 0.080566
vt 0.562500 1.000000
vt 0.341797 0.028320
vt 0.500000 1.000000
vt 0.249878 0.010254
vt 0.437500 1.000000
vt 0.158081 0.028320
vt 0.375000 1.000000
vt 0.080261 0.080566
vt 0.312500 1.000000
vt 0.028259 0.158203
vt 0.250000 1.000000
vt 0.009995 0.250000
vt 0.028259 0.342285
vt 1.000000 0.500000
vt 0.937500 0.500000
vt 0.875000 0.500000
vt 0.812500 0.500000
vt 0.750000 0.500000
vt 0.687500 0.500000
vt 0.625000 0.500000
vt 0.562500 0.500000
vt 0.500000 0.500000
vt 0.437500 0.500000
vt 0.375000 0.500000
vt 0.312500 0.500000
vt 0.250000 0.500000
vt 0.187500 0.500000
vt 0.125000 0.500000
vt 0.062500 0.500000
vt 0.000000 0.500000
vt 0.250000 0.250000
vt 0.750000 0.490234
vt 0.841797 0.472168
vt 0.750000 0.250000
vt 0.657715 0.472168
vt 0.919434 0.419922
vt 0.580078 0.419922
vt 0.971680 0.342285
vt 0.527832 0.342285
vt 0.989746 0.250000
vt 0.509766 0.250000
vt 0.971680 0.158203
vt 0.527832 0.158203
vt 0.919434 0.080566
vt 0.580078 0.080566
vt 0.841797 0.028320
vt 0.657715 0.028320
vt 0.750000 0.010254
f 1/1/1 2/2/1 3/3/1
f 4/4/2 5/5/2 6/6/2
f 7/7/3 8/8/3 9/9/3
f 10/9/4 11/10/4 12/11/4
f 13/11/5 14/12/5 15/13/5
f 16/14/6 17/15/6 18/1/6
f 19/3/7 20/16/7 21/17/7
f 22/16/8 23/6/8 24/17/8
f 25/5/9 26/18/9 27/19/9
f 28/18/10 29/20/10 30/19/10
f 31/19/11 32/20/11 33/21/11
f 34/22/12 35/21/12 36/20/12
f 37/22/13 38/23/13 39/21/13
f 40/24/14 41/23/14 42/22/14
f 43/24/13 44/25/13 45/23/13
f 46/25/15 47/24/15 48/26/15
f 49/26/16 50/27/16 51/25/16
f 52/27/13 53/26/13 54/28/13
f 55/27/17 56/28/17 57/29/17
f 58/28/18 59/30/18 60/29/18
f 61/29/19 62/30/19 63/31/19
f 64/32/13 65/31/13 66/30/13
f 67/33/13 68/31/13 69/32/13
f 70/31/13 71/33/13 72/7/13
f 73/1/20 74/34/20 75/14/20
f 76/34/21 77/1/21 78/35/21
f 79/3/22 80/35/22 81/1/22
f 82/35/23 83/3/23 84/36/23
f 85/17/24 86/36/24 87/3/24
f 88/36/25 89/17/25 90/37/25
f 91/6/26 92/37/26 93/17/26
f 94/37/27 95/6/27 96/38/27
f 97/5/28 98/38/28 99/6/28
f 100/38/29 101/5/29 102/39/29
f 103/19/30 104/39/30 105/5/30
f 106/39/31 107/19/31 108/40/31
f 109/21/32 110/40/32 111/19/32
f 112/40/33 113/21/33 114/41/33
f 115/23/34 116/41/34 117/21/34
f 118/41/35 119/23/35 120/42/35
f 121/25/36 122/42/36 123/23/36
f 124/42/37 125/25/37 126/43/37
f 127/27/38 128/43/38 129/25/38
f 130/43/39 131/27/39 132/44/39
f 133/29/40 134/44/40 135/27/40
f 136/44/41 137/29/41 138/45/41
f 139/31/42 140/45/42 141/29/42
f 142/45/43 143/31/43 144/46/43
f 145/7/44 146/46/44 147/31/44
f 148/46/45 149/7/45 150/47/45
f 151/9/46 152/47/46 153/7/46
f 154/47/47 155/9/47 156/48/47
f 157/11/48 158/48/48 159/9/48
f 160/48/49 161/11/49 162/49/49
f 163/13/50 164/49/50 165/11/50
f 166/49/51 167/13/51 168/50/51
f 169/5/52 170/4/52 171/18/52
f 172/6/53 173/16/53 174/4/53
f 175/4/54 176/51/54 177/18/54
f 178/16/55 179/51/55 180/4/55
f 181/18/56 182/51/56 183/20/56
f 184/20/57 185/51/57 186/22/57
f 187/22/58 188/51/58 189/24/58
f 190/24/59 191/51/59 192/26/59
f 193/26/60 194/51/60 195/28/60
f 196/28/61 197/51/61 198/30/61
f 199/30/62 200/51/62 201/32/62
f 202/32/63 203/51/63 204/33/63
f 205/8/64 206/7/64 207/33/64
f 208/33/65 209/51/65 210/8/65
f 211/10/66 212/9/66 213/8/66
f 214/8/67 215/51/67 216/10/67
f 217/12/68 218/11/68 219/10/68
f 220/10/69 221/51/69 222/12/69
f 223/15/70 224/14/70 225/12/70
f 226/12/71 227/51/71 228/15/71
f 229/15/72 230/51/72 231/2/72
f 232/2/73 233/1/73 234/15/73
f 235/2/74 236/51/74 237/16/74
f 238/16/75 239/3/75 240/2/75
f 241/52/13 242/53/13 243/54/13
f 244/55/13 245/52/13 246/54/13
f 247/53/13 248/56/13 249/54/13
f 250/57/13 251/55/13 252/54/13
f 253/56/13 254/58/13 255/54/13
f 256/59/13 257/57/13 258/54/13
f 259/58/13 260/60/13 261/54/13
f 262/61/13 263/59/13 264/54/13
f 265/60/13 266/62/13 267/54/13
f 268/63/13 269/61/13 270/54/13
f 271/62/76 272/64/76 273/54/76
f 274/65/77 275/63/77 276/54/77
f 277/64/13 278/66/13 279/54/13
f 280/67/13 281/65/13 282/54/13
f 283/66/13 284/68/13 285/54/13
f 286/68/13 287/67/13 288/54/13
