# Blender 4.5.3 LTS
# www.blender.org
o Cube
v 0.500000 0.500000 -0.500000
v -0.500000 0.500000 -0.500000
v -0.500000 0.500000 0.500000
v 0.500000 0.500000 -0.500000
v -0.500000 0.500000 0.500000
v 0.500000 0.500000 0.500000
v 0.500000 -0.500000 -0.500000
v 0.500000 -0.500000 0.500000
v -0.500000 -0.500000 0.500000
v 0.500000 -0.500000 -0.500000
v -0.500000 -0.500000 0.500000
v -0.500000 -0.500000 -0.500000
v 0.500000 0.500000 -0.500000
v 0.500000 0.500000 0.500000
v 0.500000 -0.500000 0.500000
v 0.500000 0.500000 -0.500000
v 0.500000 -0.500000 0.500000
v 0.500000 -0.500000 -0.500000
v -0.500000 0.500000 -0.500000
v -0.500000 -0.500000 -0.500000
v -0.500000 -0.500000 0.500000
v -0.500000 0.500000 -0.500000
v -0.500000 -0.500000 0.500000
v -0.500000 0.500000 0.500000
v 0.500000 0.500000 -0.500000
v 0.500000 -0.500000 -0.500000
v -0.500000 -0.500000 -0.500000
v 0.500000 0.500000 -0.500000
v -0.500000 -0.500000 -0.500000
v -0.500000 0.500000 -0.500000
v 0.500000 0.500000 0.500000
v -0.500000 0.500000 0.500000
v -0.500000 -0.500000 0.500000
v 0.500000 0.500000 0.500000
v -0.500000 -0.500000 0.500000
v 0.500000 -0.500000 0.500000
vn -0.0000 1.0000 -0.0000
vn -0.0000 -1.0000 -0.0000
vn 1.0000 -0.0000 -0.0000
vn -1.0000 -0.0000 -0.0000
vn -0.0000 -0.0000 -1.0000
vn -0.0000 -0.0000 1.0000
vt 0.000000 0.000000
vt 1.000000 0.000000
vt 1.000000 1.000000
vt 0.000000 1.000000
s 0
f 1/1/1 2/2/1 3/3/1
f 4/1/1 5/3/1 6/4/1
f 7/2/2 8/3/2 9/4/2
f 10/2/2 11/4/2 12/1/2
f 13/2/3 14/3/3 15/4/3
f 16/2/3 17/4/3 18/1/3
f 19/1/4 20/2/4 21/3/4
f 22/1/4 23/3/4 24/4/4
f 25/3/5 26/4/5 27/1/5
f 28/3/5 29/1/5 30/2/5
f 31/4/6 32/1/6 33/2/6
f 34/4/6 35/2/6 36/3/6
