# Made in Blockbench 4.11.2
mtllib Mincraft-Lantern.mtl

o plane
v 0.09375 0.5625 0.03125
v 0.09375 0.5625 -0.03125
v -0.09375 0.5625 0.03125
v -0.09375 0.5625 -0.03125
v 0.09375 0.8125 0.03125
v 0.09375 0.8125 -0.03125
v -0.09375 0.8125 -0.03125
v -0.09375 0.8125 0.03125
v 0.03125 0.75 0.03125
v 0.03125 0.75 -0.03125
v -0.03125 0.75 -0.03125
v -0.03125 0.75 0.03125
v -0.03125 0.625 -0.03125
v -0.03125 0.625 0.03125
v 0.03125 0.625 -0.03125
v 0.03125 0.625 0.03125
vt 0.4375 0.625
vt 0.4375 0.6875
vt 0.25 0.6875
vt 0.25 0.625
vt 0.0625 0.4375
vt 0.0625 0.6875
vt 0 0.6875
vt 0 0.4375
vt 0.1875 0.4375
vt 0.1875 0.6875
vt 0.125 0.6875
vt 0.125 0.4375
vt 0.25 0.5
vt 0.4375 0.5
vt 0.4375 0.5625
vt 0.25 0.5625
vt 0.5625 1
vt 0.5 1
vt 0.5 0.875
vt 0.5625 0.875
vt 0.5625 0.625
vt 0.5 0.625
vt 0.5 0.5625
vt 0.5625 0.5625
vt 0.5 0.8125
vt 0.5 0.6875
vt 0.5625 0.6875
vt 0.5625 0.8125
vt 0.5 0.4375
vt 0.5625 0.4375
vt 0.5625 0.5
vt 0.5 0.5
vt 0.1875 1
vt 0.125 0.9375
vt 0.125 0.8125
vt 0.1875 0.75
vt 0 1
vt 0.0625 0.9375
vt 0.125 0.9375
vt 0.1875 1
vt 0 0.75
vt 0.0625 0.8125
vt 0.0625 0.9375
vt 0 1
vt 0.1875 0.75
vt 0.125 0.8125
vt 0.0625 0.8125
vt 0 0.75
vt 0.4375 1
vt 0.375 0.9375
vt 0.375 0.8125
vt 0.4375 0.75
vt 0.25 1
vt 0.3125 0.9375
vt 0.375 0.9375
vt 0.4375 1
vt 0.25 0.75
vt 0.3125 0.8125
vt 0.3125 0.9375
vt 0.25 1
vt 0.4375 0.75
vt 0.375 0.8125
vt 0.3125 0.8125
vt 0.25 0.75
vn 0 1 0
vn -1 0 0
vn 1 0 0
vn 0 -1 0
vn 1 0 0
vn 0 1 0
vn -1 0 0
vn 0 -1 0
vn 0 0 1
vn 0 0 1
vn 0 0 1
vn 0 0 1
vn 0 0 -1
vn 0 0 -1
vn 0 0 -1
vn 0 0 -1
usemtl m_7f45b243-8e32-df95-4859-9303338e005a
f 1/1/1 2/2/1 4/3/1 3/4/1
f 1/5/2 5/6/2 6/7/2 2/8/2
f 4/9/3 7/10/3 8/11/3 3/12/3
f 7/13/4 6/14/4 5/15/4 8/16/4
f 10/17/5 9/18/5 16/19/5 15/20/5
f 10/21/6 11/22/6 12/23/6 9/24/6
f 11/25/7 13/26/7 14/27/7 12/28/7
f 13/29/8 15/30/8 16/31/8 14/32/8
f 6/33/9 10/34/9 15/35/9 2/36/9
f 7/37/10 11/38/10 10/39/10 6/40/10
f 4/41/11 13/42/11 11/43/11 7/44/11
f 2/45/12 15/46/12 13/47/12 4/48/12
f 8/49/13 12/50/13 14/51/13 3/52/13
f 5/53/14 9/54/14 12/55/14 8/56/14
f 1/57/15 16/58/15 9/59/15 5/60/15
f 3/61/16 14/62/16 16/63/16 1/64/16
o cuboid
v 0.125 0.5625 0.125
v 0.125 0.5625 -0.125
v 0.125 0.4375 0.125
v 0.125 0.4375 -0.125
v -0.125 0.5625 0.125
v -0.125 0.5625 -0.125
v -0.125 0.4375 0.125
v -0.125 0.4375 -0.125
vt 0.28125 0.5
vt 0.15625 0.5
vt 0.15625 0.4375
vt 0.28125 0.4375
vt 0.28125 0.34375
vt 0.28125 0.40625
vt 0.15625 0.40625
vt 0.15625 0.34375
vt 0.4375 0.4375
vt 0.5625 0.4375
vt 0.5625 0.5625
vt 0.4375 0.5625
vt 0.125 0.375
vt 0.125 0.5
vt 0 0.5
vt 0 0.375
vt 0.4375 0.34375
vt 0.4375 0.40625
vt 0.3125 0.40625
vt 0.3125 0.34375
vt 0.71875 0.5625
vt 0.59375 0.5625
vt 0.59375 0.5
vt 0.71875 0.5
vn 1 0 0
vn -1 0 0
vn 0 1 0
vn 0 -1 0
vn 0 0 1
vn 0 0 -1
usemtl m_c135bf25-a1b1-6779-6855-bae28252af1c
f 18/65/17 17/66/17 19/67/17 20/68/17
f 23/69/18 21/70/18 22/71/18 24/72/18
f 21/73/19 17/74/19 18/75/19 22/76/19
f 20/77/20 19/78/20 23/79/20 24/80/20
f 19/81/21 17/82/21 21/83/21 23/84/21
f 22/85/22 18/86/22 20/87/22 24/88/22
o cuboid
v 0.1875 0.4375 0.1875
v 0.1875 0.4375 -0.1875
v 0.1875 0 0.1875
v 0.1875 0 -0.1875
v -0.1875 0.4375 0.1875
v -0.1875 0.4375 -0.1875
v -0.1875 0 0.1875
v -0.1875 0 -0.1875
vt 0.1875 1
vt 0 1
vt 0 0.78125
vt 0.1875 0.78125
vt 0.40625 0.78125
vt 0.40625 1
vt 0.21875 1
vt 0.21875 0.78125
vt 0.4375 0.8125
vt 0.625 0.8125
vt 0.625 1
vt 0.4375 1
vt 0.625 0.59375
vt 0.625 0.78125
vt 0.4375 0.78125
vt 0.4375 0.59375
vt 0.1875 0.53125
vt 0.1875 0.75
vt 0 0.75
vt 0 0.53125
vt 0.40625 0.75
vt 0.21875 0.75
vt 0.21875 0.53125
vt 0.40625 0.53125
vn 1 0 0
vn -1 0 0
vn 0 1 0
vn 0 -1 0
vn 0 0 1
vn 0 0 -1
usemtl m_c135bf25-a1b1-6779-6855-bae28252af1c
f 26/89/23 25/90/23 27/91/23 28/92/23
f 31/93/24 29/94/24 30/95/24 32/96/24
f 29/97/25 25/98/25 26/99/25 30/100/25
f 28/101/26 27/102/26 31/103/26 32/104/26
f 27/105/27 25/106/27 29/107/27 31/108/27
f 30/109/28 26/110/28 28/111/28 32/112/28