# Blender 4.5.3 LTS
# www.blender.org
o Arrow
v 2.047323 0.000000 -0.100000
v 0.087624 -0.038268 -0.092388
v 0.087624 -0.000000 -0.100000
v 0.087624 -0.038268 -0.092388
v 2.047323 0.000000 -0.100000
v 2.047323 -0.038268 -0.092388
v 2.047323 -0.038268 -0.092388
v 0.087624 -0.070711 -0.070711
v 0.087624 -0.038268 -0.092388
v 0.087624 -0.070711 -0.070711
v 2.047323 -0.038268 -0.092388
v 2.047323 -0.070711 -0.070711
v 2.047323 -0.070711 -0.070711
v 0.087624 -0.092388 -0.038268
v 0.087624 -0.070711 -0.070711
v 0.087624 -0.092388 -0.038268
v 2.047323 -0.070711 -0.070711
v 2.047323 -0.092388 -0.038268
v 2.047323 -0.092388 -0.038268
v 0.087624 -0.100000 0.000000
v 0.087624 -0.092388 -0.038268
v 0.087624 -0.100000 0.000000
v 2.047323 -0.092388 -0.038268
v 2.047323 -0.100000 0.000000
v 2.047323 -0.100000 0.000000
v 0.087624 -0.092388 0.038268
v 0.087624 -0.100000 0.000000
v 0.087624 -0.092388 0.038268
v 2.047323 -0.100000 0.000000
v 2.047323 -0.092388 0.038268
v 2.047323 -0.092388 0.038268
v 0.087624 -0.070711 0.070711
v 0.087624 -0.092388 0.038268
v 0.087624 -0.070711 0.070711
v 2.047323 -0.092388 0.038268
v 2.047323 -0.070711 0.070711
v 2.047323 -0.070711 0.070711
v 0.087624 -0.038268 0.092388
v 0.087624 -0.070711 0.070711
v 0.087624 -0.038268 0.092388
v 2.047323 -0.070711 0.070711
v 2.047323 -0.038268 0.092388
v 2.047323 -0.038268 0.092388
v 0.087624 0.000000 0.100000
v 0.087624 -0.038268 0.092388
v 0.087624 0.000000 0.100000
v 2.047323 -0.038268 0.092388
v 2.047323 0.000000 0.100000
v 2.047323 0.000000 0.100000
v 0.087624 0.038268 0.092388
v 0.087624 0.000000 0.100000
v 0.087624 0.038268 0.092388
v 2.047323 0.000000 0.100000
v 2.047323 0.038268 0.092388
v 2.047323 0.038268 0.092388
v 0.087624 0.070711 0.070711
v 0.087624 0.038268 0.092388
v 0.087624 0.070711 0.070711
v 2.047323 0.038268 0.092388
v 2.047323 0.070711 0.070711
v 2.047323 0.070711 0.070711
v 0.087624 0.092388 0.038268
v 0.087624 0.070711 0.070711
v 0.087624 0.092388 0.038268
v 2.047323 0.070711 0.070711
v 2.047323 0.092388 0.038268
v 2.047323 0.092388 0.038268
v 0.087624 0.100000 -0.000000
v 0.087624 0.092388 0.038268
v 0.087624 0.100000 -0.000000
v 2.047323 0.092388 0.038268
v 2.047323 0.100000 -0.000000
v 2.047323 0.100000 -0.000000
v 0.087624 0.092388 -0.038268
v 0.087624 0.100000 -0.000000
v 0.087624 0.092388 -0.038268
v 2.047323 0.100000 -0.000000
v 2.047323 0.092388 -0.038268
v 2.047323 0.092388 -0.038268
v 0.087624 0.070711 -0.070711
v 0.087624 0.092388 -0.038268
v 0.087624 0.070711 -0.070711
v 2.047323 0.092388 -0.038268
v 2.047323 0.070711 -0.070711
v 2.047323 0.070711 -0.070711
v 0.087624 0.038268 -0.092388
v 0.087624 0.070711 -0.070711
v 0.087624 0.038268 -0.092388
v 2.047323 0.070711 -0.070711
v 2.047323 0.038268 -0.092388
v 2.047323 0.038268 -0.092388
v 0.087624 -0.000000 -0.100000
v 0.087624 0.038268 -0.092388
v 0.087624 -0.000000 -0.100000
v 2.047323 0.038268 -0.092388
v 2.047323 0.000000 -0.100000
v 2.047323 0.000000 -0.200000
v 2.047323 -0.038268 -0.092388
v 2.047323 0.000000 -0.100000
v 2.047323 -0.038268 -0.092388
v 2.047323 0.000000 -0.200000
v 2.047323 -0.076537 -0.184776
v 2.047323 -0.076537 -0.184776
v 2.047323 -0.070711 -0.070711
v 2.047323 -0.038268 -0.092388
v 2.047323 -0.070711 -0.070711
v 2.047323 -0.076537 -0.184776
v 2.047323 -0.141421 -0.141421
v 2.047323 -0.141421 -0.141421
v 2.047323 -0.092388 -0.038268
v 2.047323 -0.070711 -0.070711
v 2.047323 -0.092388 -0.038268
v 2.047323 -0.141421 -0.141421
v 2.047323 -0.184776 -0.076537
v 2.047323 -0.184776 -0.076537
v 2.047323 -0.100000 0.000000
v 2.047323 -0.092388 -0.038268
v 2.047323 -0.100000 0.000000
v 2.047323 -0.184776 -0.076537
v 2.047323 -0.200000 0.000000
v 2.047323 -0.200000 0.000000
v 2.047323 -0.092388 0.038268
v 2.047323 -0.100000 0.000000
v 2.047323 -0.092388 0.038268
v 2.047323 -0.200000 0.000000
v 2.047323 -0.184776 0.076537
v 2.047323 -0.184776 0.076537
v 2.047323 -0.070711 0.070711
v 2.047323 -0.092388 0.038268
v 2.047323 -0.070711 0.070711
v 2.047323 -0.184776 0.076537
v 2.047323 -0.141421 0.141421
v 2.047323 -0.141421 0.141421
v 2.047323 -0.038268 0.092388
v 2.047323 -0.070711 0.070711
v 2.047323 -0.038268 0.092388
v 2.047323 -0.141421 0.141421
v 2.047323 -0.076537 0.184776
v 2.047323 -0.076537 0.184776
v 2.047323 0.000000 0.100000
v 2.047323 -0.038268 0.092388
v 2.047323 0.000000 0.100000
v 2.047323 -0.076537 0.184776
v 2.047323 0.000000 0.200000
v 2.047323 0.000000 0.200000
v 2.047323 0.038268 0.092388
v 2.047323 0.000000 0.100000
v 2.047323 0.038268 0.092388
v 2.047323 0.000000 0.200000
v 2.047323 0.076537 0.184776
v 2.047323 0.076537 0.184776
v 2.047323 0.070711 0.070711
v 2.047323 0.038268 0.092388
v 2.047323 0.070711 0.070711
v 2.047323 0.076537 0.184776
v 2.047323 0.141421 0.141421
v 2.047323 0.141421 0.141421
v 2.047323 0.092388 0.038268
v 2.047323 0.070711 0.070711
v 2.047323 0.092388 0.038268
v 2.047323 0.141421 0.141421
v 2.047323 0.184776 0.076537
v 2.047323 0.184776 0.076537
v 2.047323 0.100000 -0.000000
v 2.047323 0.092388 0.038268
v 2.047323 0.100000 -0.000000
v 2.047323 0.184776 0.076537
v 2.047323 0.200000 -0.000000
v 2.047323 0.200000 -0.000000
v 2.047323 0.092388 -0.038268
v 2.047323 0.100000 -0.000000
v 2.047323 0.092388 -0.038268
v 2.047323 0.200000 -0.000000
v 2.047323 0.184776 -0.076537
v 2.047323 0.184776 -0.076537
v 2.047323 0.070711 -0.070711
v 2.047323 0.092388 -0.038268
v 2.047323 0.070711 -0.070711
v 2.047323 0.184776 -0.076537
v 2.047323 0.141421 -0.141421
v 2.047323 0.141421 -0.141421
v 2.047323 0.038268 -0.092388
v 2.047323 0.070711 -0.070711
v 2.047323 0.038268 -0.092388
v 2.047323 0.141421 -0.141421
v 2.047323 0.076537 -0.184776
v 2.047323 0.076537 -0.184776
v 2.047323 0.000000 -0.100000
v 2.047323 0.038268 -0.092388
v 2.047323 0.000000 -0.100000
v 2.047323 0.076537 -0.184776
v 2.047323 0.000000 -0.200000
v 3.000000 0.000000 -0.010000
v 2.047323 -0.076537 -0.184776
v 2.047323 0.000000 -0.200000
v 2.047323 -0.076537 -0.184776
v 3.000000 0.000000 -0.010000
v 3.000000 -0.003827 -0.009239
v 3.000000 -0.003827 -0.009239
v 2.047323 -0.141421 -0.141421
v 2.047323 -0.076537 -0.184776
v 2.047323 -0.141421 -0.141421
v 3.000000 -0.003827 -0.009239
v 3.000000 -0.007071 -0.007071
v 3.000000 -0.007071 -0.007071
v 2.047323 -0.184776 -0.076537
v 2.047323 -0.141421 -0.141421
v 2.047323 -0.184776 -0.076537
v 3.000000 -0.007071 -0.007071
v 3.000000 -0.009239 -0.003827
v 3.000000 -0.009239 -0.003827
v 2.047323 -0.200000 0.000000
v 2.047323 -0.184776 -0.076537
v 2.047323 -0.200000 0.000000
v 3.000000 -0.009239 -0.003827
v 3.000000 -0.010000 0.000000
v 3.000000 -0.010000 0.000000
v 2.047323 -0.184776 0.076537
v 2.047323 -0.200000 0.000000
v 2.047323 -0.184776 0.076537
v 3.000000 -0.010000 0.000000
v 3.000000 -0.009239 0.003827
v 3.000000 -0.009239 0.003827
v 2.047323 -0.141421 0.141421
v 2.047323 -0.184776 0.076537
v 2.047323 -0.141421 0.141421
v 3.000000 -0.009239 0.003827
v 3.000000 -0.007071 0.007071
v 3.000000 -0.007071 0.007071
v 2.047323 -0.076537 0.184776
v 2.047323 -0.141421 0.141421
v 2.047323 -0.076537 0.184776
v 3.000000 -0.007071 0.007071
v 3.000000 -0.003827 0.009239
v 3.000000 -0.003827 0.009239
v 2.047323 0.000000 0.200000
v 2.047323 -0.076537 0.184776
v 2.047323 0.000000 0.200000
v 3.000000 -0.003827 0.009239
v 3.000000 0.000000 0.010000
v 3.000000 0.000000 0.010000
v 2.047323 0.076537 0.184776
v 2.047323 0.000000 0.200000
v 2.047323 0.076537 0.184776
v 3.000000 0.000000 0.010000
v 3.000000 0.003827 0.009239
v 3.000000 0.003827 0.009239
v 2.047323 0.141421 0.141421
v 2.047323 0.076537 0.184776
v 2.047323 0.141421 0.141421
v 3.000000 0.003827 0.009239
v 3.000000 0.007071 0.007071
v 3.000000 0.007071 0.007071
v 2.047323 0.184776 0.076537
v 2.047323 0.141421 0.141421
v 2.047323 0.184776 0.076537
v 3.000000 0.007071 0.007071
v 3.000000 0.009239 0.003827
v 3.000000 0.009239 0.003827
v 2.047323 0.200000 -0.000000
v 2.047323 0.184776 0.076537
v 2.047323 0.200000 -0.000000
v 3.000000 0.009239 0.003827
v 3.000000 0.010000 -0.000000
v 3.000000 0.010000 -0.000000
v 2.047323 0.184776 -0.076537
v 2.047323 0.200000 -0.000000
v 2.047323 0.184776 -0.076537
v 3.000000 0.010000 -0.000000
v 3.000000 0.009239 -0.003827
v 3.000000 0.009239 -0.003827
v 2.047323 0.141421 -0.141421
v 2.047323 0.184776 -0.076537
v 2.047323 0.141421 -0.141421
v 3.000000 0.009239 -0.003827
v 3.000000 0.007071 -0.007071
v 3.000000 0.007071 -0.007071
v 2.047323 0.076537 -0.184776
v 2.047323 0.141421 -0.141421
v 2.047323 0.076537 -0.184776
v 3.000000 0.007071 -0.007071
v 3.000000 0.003827 -0.009239
v 3.000000 0.003827 -0.009239
v 2.047323 0.000000 -0.200000
v 2.047323 0.076537 -0.184776
v 2.047323 0.000000 -0.200000
v 3.000000 0.003827 -0.009239
v 3.000000 0.000000 -0.010000
v 0.087624 -0.038268 -0.092388
v 0.087624 0.000000 0.000000
v 0.087624 -0.000000 -0.100000
v 0.087624 -0.070711 -0.070711
v 0.087624 0.000000 0.000000
v 0.087624 -0.038268 -0.092388
v 0.087624 -0.000000 -0.100000
v 0.087624 0.000000 0.000000
v 0.087624 0.038268 -0.092388
v 0.087624 -0.092388 -0.038268
v 0.087624 0.000000 0.000000
v 0.087624 -0.070711 -0.070711
v 0.087624 0.038268 -0.092388
v 0.087624 0.000000 0.000000
v 0.087624 0.070711 -0.070711
v 0.087624 -0.100000 0.000000
v 0.087624 0.000000 0.000000
v 0.087624 -0.092388 -0.038268
v 0.087624 0.070711 -0.070711
v 0.087624 0.000000 0.000000
v 0.087624 0.092388 -0.038268
v 0.087624 -0.092388 0.038268
v 0.087624 0.000000 0.000000
v 0.087624 -0.100000 0.000000
v 0.087624 0.092388 -0.038268
v 0.087624 0.000000 0.000000
v 0.087624 0.100000 -0.000000
v 0.087624 -0.070711 0.070711
v 0.087624 0.000000 0.000000
v 0.087624 -0.092388 0.038268
v 0.087624 0.100000 -0.000000
v 0.087624 0.000000 0.000000
v 0.087624 0.092388 0.038268
v 0.087624 -0.038268 0.092388
v 0.087624 0.000000 0.000000
v 0.087624 -0.070711 0.070711
v 0.087624 0.092388 0.038268
v 0.087624 0.000000 0.000000
v 0.087624 0.070711 0.070711
v 0.087624 0.000000 0.100000
v 0.087624 0.000000 0.000000
v 0.087624 -0.038268 0.092388
v 0.087624 0.070711 0.070711
v 0.087624 0.000000 0.000000
v 0.087624 0.038268 0.092388
v 0.087624 0.038268 0.092388
v 0.087624 0.000000 0.000000
v 0.087624 0.000000 0.100000
v 3.000000 0.000000 -0.010000
v 3.000000 0.000000 0.000000
v 3.000000 -0.003827 -0.009239
v 3.000000 0.003827 -0.009239
v 3.000000 0.000000 0.000000
v 3.000000 0.000000 -0.010000
v 3.000000 -0.003827 -0.009239
v 3.000000 0.000000 0.000000
v 3.000000 -0.007071 -0.007071
v 3.000000 0.007071 -0.007071
v 3.000000 0.000000 0.000000
v 3.000000 0.003827 -0.009239
v 3.000000 -0.007071 -0.007071
v 3.000000 0.000000 0.000000
v 3.000000 -0.009239 -0.003827
v 3.000000 0.009239 -0.003827
v 3.000000 0.000000 0.000000
v 3.000000 0.007071 -0.007071
v 3.000000 -0.009239 -0.003827
v 3.000000 0.000000 0.000000
v 3.000000 -0.010000 0.000000
v 3.000000 0.010000 -0.000000
v 3.000000 0.000000 0.000000
v 3.000000 0.009239 -0.003827
v 3.000000 -0.010000 0.000000
v 3.000000 0.000000 0.000000
v 3.000000 -0.009239 0.003827
v 3.000000 0.009239 0.003827
v 3.000000 0.000000 0.000000
v 3.000000 0.010000 -0.000000
v 3.000000 -0.009239 0.003827
v 3.000000 0.000000 0.000000
v 3.000000 -0.007071 0.007071
v 3.000000 0.007071 0.007071
v 3.000000 0.000000 0.000000
v 3.000000 0.009239 0.003827
v 3.000000 -0.007071 0.007071
v 3.000000 0.000000 0.000000
v 3.000000 -0.003827 0.009239
v 3.000000 0.003827 0.009239
v 3.000000 0.000000 0.000000
v 3.000000 0.007071 0.007071
v 3.000000 -0.003827 0.009239
v 3.000000 0.000000 0.000000
v 3.000000 0.000000 0.010000
v 3.000000 0.000000 0.010000
v 3.000000 0.000000 0.000000
v 3.000000 0.003827 0.009239
vn -0.0000 -0.1951 -0.9808
vn -0.0000 -0.5556 -0.8315
vn -0.0000 -0.8315 -0.5556
vn -0.0000 -0.9808 -0.1951
vn -0.0000 -0.9808 0.1951
vn -0.0000 -0.8315 0.5556
vn -0.0000 -0.5556 0.8315
vn -0.0000 -0.1951 0.9808
vn -0.0000 0.1951 0.9808
vn -0.0000 0.5556 0.8315
vn -0.0000 0.8315 0.5556
vn -0.0000 0.9808 0.1951
vn -0.0000 0.9808 -0.1951
vn -0.0000 0.8315 -0.5556
vn -0.0000 0.5556 -0.8315
vn -0.0000 0.1951 -0.9808
vn -1.0000 -0.0000 -0.0000
vn 0.1920 -0.1915 -0.9625
vn 0.1920 -0.1914 -0.9626
vn 0.1920 -0.5452 -0.8160
vn 0.1920 -0.5453 -0.8160
vn 0.1920 -0.8160 -0.5452
vn 0.1920 -0.8160 -0.5453
vn 0.1920 -0.9625 -0.1915
vn 0.1920 -0.9626 -0.1914
vn 0.1920 -0.9625 0.1915
vn 0.1920 -0.9626 0.1914
vn 0.1920 -0.8160 0.5452
vn 0.1920 -0.8160 0.5453
vn 0.1920 -0.5452 0.8160
vn 0.1920 -0.5453 0.8160
vn 0.1920 -0.1915 0.9625
vn 0.1920 -0.1914 0.9626
vn 0.1920 0.1915 0.9625
vn 0.1920 0.1914 0.9626
vn 0.1920 0.5452 0.8160
vn 0.1920 0.5453 0.8160
vn 0.1920 0.8160 0.5452
vn 0.1920 0.8160 0.5453
vn 0.1920 0.9625 0.1915
vn 0.1920 0.9626 0.1914
vn 0.1920 0.9625 -0.1915
vn 0.1920 0.9626 -0.1914
vn 0.1920 0.8160 -0.5452
vn 0.1920 0.8160 -0.5453
vn 0.1920 0.5452 -0.8160
vn 0.1920 0.5453 -0.8160
vn 0.1920 0.1915 -0.9625
vn 0.1920 0.1914 -0.9626
vn 1.0000 -0.0000 -0.0000
vt 1.000000 0.393555
vt 0.937500 0.090332
vt 1.000000 0.090332
vt 0.937500 0.393555
vt 0.875000 0.090332
vt 0.875000 0.393555
vt 0.812500 0.090332
vt 0.812500 0.393555
vt 0.750000 0.090332
vt 0.750000 0.393555
vt 0.687500 0.090332
vt 0.687500 0.393555
vt 0.625000 0.090332
vt 0.625000 0.393555
vt 0.562500 0.090332
vt 0.562500 0.393555
vt 0.500000 0.090332
vt 0.500000 0.393555
vt 0.437500 0.090332
vt 0.437500 0.393555
vt 0.375000 0.090332
vt 0.375000 0.393555
vt 0.312500 0.090332
vt 0.312500 0.393555
vt 0.250000 0.090332
vt 0.250000 0.393555
vt 0.187500 0.090332
vt 0.187500 0.393555
vt 0.125000 0.090332
vt 0.125000 0.393555
vt 0.062500 0.090332
vt 0.062500 0.393555
vt 0.000000 0.090332
vt 0.000000 0.393555
vt 1.000000 0.696777
vt 0.937500 0.696777
vt 0.875000 0.696777
vt 0.812500 0.696777
vt 0.750000 0.696777
vt 0.687500 0.696777
vt 0.625000 0.696777
vt 0.562500 0.696777
vt 0.500000 0.696777
vt 0.437500 0.696777
vt 0.375000 0.696777
vt 0.312500 0.696777
vt 0.250000 0.696777
vt 0.187500 0.696777
vt 0.125000 0.696777
vt 0.062500 0.696777
vt 0.000000 0.696777
vt 1.000000 1.000000
vt 0.937500 1.000000
vt 0.875000 1.000000
vt 0.812500 1.000000
vt 0.750000 1.000000
vt 0.687500 1.000000
vt 0.625000 1.000000
vt 0.562500 1.000000
vt 0.500000 1.000000
vt 0.437500 1.000000
vt 0.375000 1.000000
vt 0.312500 1.000000
vt 0.250000 1.000000
vt 0.187500 1.000000
vt 0.125000 1.000000
vt 0.062500 1.000000
vt 0.000000 1.000000
vt 0.306152 0.779907
vt 0.159180 0.840820
vt 0.318359 0.840820
vt 0.271729 0.728271
vt 0.306152 0.901733
vt 0.220093 0.693848
vt 0.271729 0.953400
vt 0.159180 0.681641
vt 0.220093 0.987885
vt 0.098267 0.693848
vt 0.159180 1.000000
vt 0.046600 0.728271
vt 0.098267 0.987885
vt 0.012115 0.779907
vt 0.046600 0.953400
vt 0.000000 0.840820
vt 0.012115 0.901733
s 1
f 1/1/1 2/2/1 3/3/1
f 4/2/1 5/1/1 6/4/1
f 7/4/2 8/5/2 9/2/2
f 10/5/2 11/4/2 12/6/2
f 13/6/3 14/7/3 15/5/3
f 16/7/3 17/6/3 18/8/3
f 19/8/4 20/9/4 21/7/4
f 22/9/4 23/8/4 24/10/4
f 25/10/5 26/11/5 27/9/5
f 28/11/5 29/10/5 30/12/5
f 31/12/6 32/13/6 33/11/6
f 34/13/6 35/12/6 36/14/6
f 37/14/7 38/15/7 39/13/7
f 40/15/7 41/14/7 42/16/7
f 43/16/8 44/17/8 45/15/8
f 46/17/8 47/16/8 48/18/8
f 49/18/9 50/19/9 51/17/9
f 52/19/9 53/18/9 54/20/9
f 55/20/10 56/21/10 57/19/10
f 58/21/10 59/20/10 60/22/10
f 61/22/11 62/23/11 63/21/11
f 64/23/11 65/22/11 66/24/11
f 67/24/12 68/25/12 69/23/12
f 70/25/12 71/24/12 72/26/12
f 73/26/13 74/27/13 75/25/13
f 76/27/13 77/26/13 78/28/13
f 79/28/14 80/29/14 81/27/14
f 82/29/14 83/28/14 84/30/14
f 85/30/15 86/31/15 87/29/15
f 88/31/15 89/30/15 90/32/15
f 91/32/16 92/33/16 93/31/16
f 94/33/16 95/32/16 96/34/16
f 97/35/17 98/4/17 99/1/17
f 100/4/17 101/35/17 102/36/17
f 103/36/17 104/6/17 105/4/17
f 106/6/17 107/36/17 108/37/17
f 109/37/17 110/8/17 111/6/17
f 112/8/17 113/37/17 114/38/17
f 115/38/17 116/10/17 117/8/17
f 118/10/17 119/38/17 120/39/17
f 121/39/17 122/12/17 123/10/17
f 124/12/17 125/39/17 126/40/17
f 127/40/17 128/14/17 129/12/17
f 130/14/17 131/40/17 132/41/17
f 133/41/17 134/16/17 135/14/17
f 136/16/17 137/41/17 138/42/17
f 139/42/17 140/18/17 141/16/17
f 142/18/17 143/42/17 144/43/17
f 145/43/17 146/20/17 147/18/17
f 148/20/17 149/43/17 150/44/17
f 151/44/17 152/22/17 153/20/17
f 154/22/17 155/44/17 156/45/17
f 157/45/17 158/24/17 159/22/17
f 160/24/17 161/45/17 162/46/17
f 163/46/17 164/26/17 165/24/17
f 166/26/17 167/46/17 168/47/17
f 169/47/17 170/28/17 171/26/17
f 172/28/17 173/47/17 174/48/17
f 175/48/17 176/30/17 177/28/17
f 178/30/17 179/48/17 180/49/17
f 181/49/17 182/32/17 183/30/17
f 184/32/17 185/49/17 186/50/17
f 187/50/17 188/34/17 189/32/17
f 190/34/17 191/50/17 192/51/17
f 193/52/18 194/36/18 195/35/18
f 196/36/19 197/52/19 198/53/19
f 199/53/20 200/37/20 201/36/20
f 202/37/21 203/53/21 204/54/21
f 205/54/22 206/38/22 207/37/22
f 208/38/23 209/54/23 210/55/23
f 211/55/24 212/39/24 213/38/24
f 214/39/25 215/55/25 216/56/25
f 217/56/26 218/40/26 219/39/26
f 220/40/27 221/56/27 222/57/27
f 223/57/28 224/41/28 225/40/28
f 226/41/29 227/57/29 228/58/29
f 229/58/30 230/42/30 231/41/30
f 232/42/31 233/58/31 234/59/31
f 235/59/32 236/43/32 237/42/32
f 238/43/33 239/59/33 240/60/33
f 241/60/34 242/44/34 243/43/34
f 244/44/35 245/60/35 246/61/35
f 247/61/36 248/45/36 249/44/36
f 250/45/37 251/61/37 252/62/37
f 253/62/38 254/46/38 255/45/38
f 256/46/39 257/62/39 258/63/39
f 259/63/40 260/47/40 261/46/40
f 262/47/41 263/63/41 264/64/41
f 265/64/42 266/48/42 267/47/42
f 268/48/43 269/64/43 270/65/43
f 271/65/44 272/49/44 273/48/44
f 274/49/45 275/65/45 276/66/45
f 277/66/46 278/50/46 279/49/46
f 280/50/47 281/66/47 282/67/47
f 283/67/48 284/51/48 285/50/48
f 286/51/49 287/67/49 288/68/49
f 289/69/17 290/70/17 291/71/17
f 292/72/17 293/70/17 294/69/17
f 295/71/17 296/70/17 297/73/17
f 298/74/17 299/70/17 300/72/17
f 301/73/17 302/70/17 303/75/17
f 304/76/17 305/70/17 306/74/17
f 307/75/17 308/70/17 309/77/17
f 310/78/17 311/70/17 312/76/17
f 313/77/17 314/70/17 315/79/17
f 316/80/17 317/70/17 318/78/17
f 319/79/17 320/70/17 321/81/17
f 322/82/17 323/70/17 324/80/17
f 325/81/17 326/70/17 327/83/17
f 328/84/17 329/70/17 330/82/17
f 331/83/17 332/70/17 333/85/17
f 334/85/17 335/70/17 336/84/17
f 337/71/50 338/70/50 339/69/50
f 340/73/50 341/70/50 342/71/50
f 343/69/50 344/70/50 345/72/50
f 346/75/50 347/70/50 348/73/50
f 349/72/50 350/70/50 351/74/50
f 352/77/50 353/70/50 354/75/50
f 355/74/50 356/70/50 357/76/50
f 358/79/50 359/70/50 360/77/50
f 361/76/50 362/70/50 363/78/50
f 364/81/50 365/70/50 366/79/50
f 367/78/50 368/70/50 369/80/50
f 370/83/50 371/70/50 372/81/50
f 373/80/50 374/70/50 375/82/50
f 376/85/50 377/70/50 378/83/50
f 379/82/50 380/70/50 381/84/50
f 382/84/50 383/70/50 384/85/50
