# Blender 4.5.3 LTS
# www.blender.org
o Sphere.001
v 0.270598 -0.270598 0.923880
v 0.500000 -0.500000 0.707107
v 0.653281 -0.653281 0.382683
v 0.707107 -0.707107 0.000000
v 0.653281 -0.653281 -0.382683
v 0.500000 -0.500000 -0.707107
v 0.270598 -0.270598 -0.923880
v 0.000000 -0.382683 0.923880
v 0.000000 -0.707107 0.707107
v 0.000000 -0.923879 0.382683
v 0.000000 -1.000000 0.000000
v 0.000000 -0.923879 -0.382683
v 0.000000 -0.707107 -0.707107
v 0.000000 -0.382683 -0.923880
v -0.270598 -0.270598 0.923880
v -0.500000 -0.500000 0.707107
v -0.653281 -0.653281 0.382683
v -0.707107 -0.707107 0.000000
v -0.653281 -0.653281 -0.382683
v -0.500000 -0.500000 -0.707107
v -0.270598 -0.270598 -0.923880
v -0.382683 0.000000 0.923880
v -0.707107 0.000000 0.707107
v -0.923879 0.000000 0.382683
v -1.000000 0.000000 0.000000
v -0.923879 0.000000 -0.382683
v -0.707107 0.000000 -0.707107
v -0.382683 0.000000 -0.923880
v -0.270598 0.270598 0.923880
v -0.500000 0.500000 0.707107
v -0.653281 0.653281 0.382683
v -0.707107 0.707107 0.000000
v -0.653281 0.653281 -0.382683
v -0.500000 0.500000 -0.707107
v -0.270598 0.270598 -0.923880
v 0.000000 0.382683 0.923880
v 0.000000 0.707107 0.707107
v 0.000000 0.923879 0.382683
v 0.000000 1.000000 0.000000
v 0.000000 0.923879 -0.382683
v 0.000000 0.707107 -0.707107
v 0.000000 0.382683 -0.923880
v 0.270598 0.270598 0.923880
v 0.500000 0.500000 0.707107
v 0.653281 0.653281 0.382683
v 0.707107 0.707107 0.000000
v 0.653281 0.653281 -0.382683
v 0.500000 0.500000 -0.707107
v 0.270598 0.270598 -0.923880
v 0.000000 0.000000 -1.000000
v 0.000000 0.000000 1.000000
v 0.382683 0.000000 0.923880
v 0.707107 0.000000 0.707107
v 0.923879 0.000000 0.382683
v 1.000000 0.000000 0.000000
v 0.923879 0.000000 -0.382683
v 0.707107 0.000000 -0.707107
v 0.382683 0.000000 -0.923880
vn 0.2988 -0.2988 0.9063
vn 0.5159 -0.5159 0.6839
vn 0.6578 -0.6578 0.3668
vn 0.7071 -0.7071 -0.0000
vn 0.6578 -0.6578 -0.3668
vn 0.5159 -0.5159 -0.6839
vn 0.2988 -0.2988 -0.9063
vn -0.0000 -0.4226 0.9063
vn -0.0000 -0.7296 0.6839
vn -0.0000 -0.9303 0.3668
vn -0.0000 -1.0000 -0.0000
vn -0.0000 -0.9303 -0.3668
vn -0.0000 -0.7296 -0.6839
vn -0.0000 -0.4226 -0.9063
vn -0.2988 -0.2988 0.9063
vn -0.5159 -0.5159 0.6839
vn -0.6578 -0.6578 0.3668
vn -0.7071 -0.7071 -0.0000
vn -0.6578 -0.6578 -0.3668
vn -0.5159 -0.5159 -0.6839
vn -0.2988 -0.2988 -0.9063
vn -0.4226 -0.0000 0.9063
vn -0.7296 -0.0000 0.6839
vn -0.9303 -0.0000 0.3668
vn -1.0000 -0.0000 -0.0000
vn -0.9303 -0.0000 -0.3668
vn -0.7296 -0.0000 -0.6839
vn -0.4226 -0.0000 -0.9063
vn -0.2988 0.2988 0.9063
vn -0.5159 0.5159 0.6839
vn -0.6578 0.6578 0.3668
vn -0.7071 0.7071 -0.0000
vn -0.6578 0.6578 -0.3668
vn -0.5159 0.5159 -0.6839
vn -0.2988 0.2988 -0.9063
vn -0.0000 0.4226 0.9063
vn -0.0000 0.7296 0.6839
vn -0.0000 0.9303 0.3668
vn -0.0000 1.0000 -0.0000
vn -0.0000 0.9303 -0.3668
vn -0.0000 0.7296 -0.6839
vn -0.0000 0.4226 -0.9063
vn 0.2988 0.2988 0.9063
vn 0.5159 0.5159 0.6839
vn 0.6578 0.6578 0.3668
vn 0.7071 0.7071 -0.0000
vn 0.6578 0.6578 -0.3668
vn 0.5159 0.5159 -0.6839
vn 0.2988 0.2988 -0.9063
vn -0.0000 -0.0000 -1.0000
vn -0.0000 -0.0000 1.0000
vn 0.4226 -0.0000 0.9063
vn 0.7296 -0.0000 0.6839
vn 0.9303 -0.0000 0.3668
vn 1.0000 -0.0000 -0.0000
vn 0.9303 -0.0000 -0.3668
vn 0.7296 -0.0000 -0.6839
vn 0.4226 -0.0000 -0.9063
vt 0.750000 0.625000
vt 0.625000 0.500000
vt 0.750000 0.500000
vt 0.750000 0.875000
vt 0.625000 0.750000
vt 0.750000 0.750000
vt 0.750000 0.250000
vt 0.625000 0.125000
vt 0.750000 0.125000
vt 0.750000 0.375000
vt 0.625000 0.375000
vt 0.625000 0.625000
vt 0.687500 1.000000
vt 0.625000 0.875000
vt 0.687500 0.000000
vt 0.625000 0.250000
vt 0.500000 0.125000
vt 0.500000 0.375000
vt 0.500000 0.750000
vt 0.500000 0.625000
vt 0.562500 1.000000
vt 0.500000 0.875000
vt 0.562500 0.000000
vt 0.500000 0.250000
vt 0.500000 0.500000
vt 0.437500 1.000000
vt 0.375000 0.875000
vt 0.437500 0.000000
vt 0.375000 0.125000
vt 0.375000 0.250000
vt 0.375000 0.500000
vt 0.375000 0.750000
vt 0.375000 0.375000
vt 0.375000 0.625000
vt 0.250000 0.250000
vt 0.250000 0.500000
vt 0.250000 0.750000
vt 0.250000 0.125000
vt 0.250000 0.375000
vt 0.250000 0.625000
vt 0.312500 1.000000
vt 0.250000 0.875000
vt 0.312500 0.000000
vt 0.125000 0.125000
vt 0.125000 0.375000
vt 0.125000 0.625000
vt 0.187500 1.000000
vt 0.125000 0.875000
vt 0.187500 0.000000
vt 0.125000 0.250000
vt 0.125000 0.500000
vt 0.125000 0.750000
vt 0.000000 0.500000
vt 0.000000 0.375000
vt 0.000000 0.625000
vt 0.062500 1.000000
vt 0.000000 0.875000
vt 0.062500 0.000000
vt 0.000000 0.125000
vt 0.000000 0.250000
vt 0.000000 0.750000
vt 0.937500 0.000000
vt 1.000000 0.125000
vt 0.875000 0.125000
vt 1.000000 0.375000
vt 0.875000 0.250000
vt 1.000000 0.250000
vt 1.000000 0.500000
vt 0.875000 0.625000
vt 0.875000 0.500000
vt 1.000000 0.875000
vt 0.875000 0.750000
vt 1.000000 0.750000
vt 0.875000 0.375000
vt 1.000000 0.625000
vt 0.937500 1.000000
vt 0.875000 0.875000
vt 0.812500 1.000000
vt 0.812500 0.000000
s 1
f 54/1/54 4/2/4 55/3/55
f 52/4/52 2/5/2 53/6/53
f 57/7/57 7/8/7 58/9/58
f 56/10/56 4/2/4 5/11/5
f 54/1/54 2/5/2 3/12/3
f 52/4/52 51/13/51 1/14/1
f 50/15/50 58/9/58 7/8/7
f 56/10/56 6/16/6 57/7/57
f 6/16/6 14/17/14 7/8/7
f 4/2/4 12/18/12 5/11/5
f 3/12/3 9/19/9 10/20/10
f 1/14/1 51/21/51 8/22/8
f 50/23/50 7/8/7 14/17/14
f 5/11/5 13/24/13 6/16/6
f 3/12/3 11/25/11 4/2/4
f 1/14/1 9/19/9 2/5/2
f 8/22/8 51/26/51 15/27/15
f 50/28/50 14/17/14 21/29/21
f 12/18/12 20/30/20 13/24/13
f 10/20/10 18/31/18 11/25/11
f 8/22/8 16/32/16 9/19/9
f 13/24/13 21/29/21 14/17/14
f 12/18/12 18/31/18 19/33/19
f 10/20/10 16/32/16 17/34/17
f 19/33/19 27/35/27 20/30/20
f 17/34/17 25/36/25 18/31/18
f 15/27/15 23/37/23 16/32/16
f 20/30/20 28/38/28 21/29/21
f 19/33/19 25/36/25 26/39/26
f 16/32/16 24/40/24 17/34/17
f 15/27/15 51/41/51 22/42/22
f 50/43/50 21/29/21 28/38/28
f 27/35/27 35/44/35 28/38/28
f 25/36/25 33/45/33 26/39/26
f 23/37/23 31/46/31 24/40/24
f 22/42/22 51/47/51 29/48/29
f 50/49/50 28/38/28 35/44/35
f 26/39/26 34/50/34 27/35/27
f 25/36/25 31/46/31 32/51/32
f 22/42/22 30/52/30 23/37/23
f 33/45/33 39/53/39 40/54/40
f 30/52/30 38/55/38 31/46/31
f 29/48/29 51/56/51 36/57/36
f 50/58/50 35/44/35 42/59/42
f 33/45/33 41/60/41 34/50/34
f 31/46/31 39/53/39 32/51/32
f 29/48/29 37/61/37 30/52/30
f 34/50/34 42/59/42 35/44/35
f 50/62/50 42/63/42 49/64/49
f 40/65/40 48/66/48 41/67/41
f 39/68/39 45/69/45 46/70/46
f 36/71/36 44/72/44 37/73/37
f 41/67/41 49/64/49 42/63/42
f 39/68/39 47/74/47 40/65/40
f 37/73/37 45/69/45 38/75/38
f 36/71/36 51/76/51 43/77/43
f 45/69/45 55/3/55 46/70/46
f 43/77/43 53/6/53 44/72/44
f 48/66/48 58/9/58 49/64/49
f 47/74/47 55/3/55 56/10/56
f 44/72/44 54/1/54 45/69/45
f 43/77/43 51/78/51 52/4/52
f 50/79/50 49/64/49 58/9/58
f 47/74/47 57/7/57 48/66/48
f 54/1/54 3/12/3 4/2/4
f 52/4/52 1/14/1 2/5/2
f 57/7/57 6/16/6 7/8/7
f 56/10/56 55/3/55 4/2/4
f 54/1/54 53/6/53 2/5/2
f 56/10/56 5/11/5 6/16/6
f 6/16/6 13/24/13 14/17/14
f 4/2/4 11/25/11 12/18/12
f 3/12/3 2/5/2 9/19/9
f 5/11/5 12/18/12 13/24/13
f 3/12/3 10/20/10 11/25/11
f 1/14/1 8/22/8 9/19/9
f 12/18/12 19/33/19 20/30/20
f 10/20/10 17/34/17 18/31/18
f 8/22/8 15/27/15 16/32/16
f 13/24/13 20/30/20 21/29/21
f 12/18/12 11/25/11 18/31/18
f 10/20/10 9/19/9 16/32/16
f 19/33/19 26/39/26 27/35/27
f 17/34/17 24/40/24 25/36/25
f 15/27/15 22/42/22 23/37/23
f 20/30/20 27/35/27 28/38/28
f 19/33/19 18/31/18 25/36/25
f 16/32/16 23/37/23 24/40/24
f 27/35/27 34/50/34 35/44/35
f 25/36/25 32/51/32 33/45/33
f 23/37/23 30/52/30 31/46/31
f 26/39/26 33/45/33 34/50/34
f 25/36/25 24/40/24 31/46/31
f 22/42/22 29/48/29 30/52/30
f 33/45/33 32/51/32 39/53/39
f 30/52/30 37/61/37 38/55/38
f 33/45/33 40/54/40 41/60/41
f 31/46/31 38/55/38 39/53/39
f 29/48/29 36/57/36 37/61/37
f 34/50/34 41/60/41 42/59/42
f 40/65/40 47/74/47 48/66/48
f 39/68/39 38/75/38 45/69/45
f 36/71/36 43/77/43 44/72/44
f 41/67/41 48/66/48 49/64/49
f 39/68/39 46/70/46 47/74/47
f 37/73/37 44/72/44 45/69/45
f 45/69/45 54/1/54 55/3/55
f 43/77/43 52/4/52 53/6/53
f 48/66/48 57/7/57 58/9/58
f 47/74/47 46/70/46 55/3/55
f 44/72/44 53/6/53 54/1/54
f 47/74/47 56/10/56 57/7/57
