mtllib box.mtl
o Cube
usemtl Material
v 100 -100.00001629206683 -99.99997774746771
v -100 -100.00001629206683 -99.99997774746771
v -100 99.99997774746771 -100.00001629206683
v 100 -100.00001629206683 -99.99997774746771
v -100 99.99997774746771 -100.00001629206683
v 100 99.99997774746771 -100.00001629206683
v 100 100.00001629206683 99.99997774746771
v 100 99.99997774746771 -100.00001629206683
v -100 99.99997774746771 -100.00001629206683
v 100 100.00001629206683 99.99997774746771
v -100 99.99997774746771 -100.00001629206683
v -100 100.00001629206683 99.99997774746771
v -100 100.00001629206683 99.99997774746771
v -100 99.99997774746771 -100.00001629206683
v -100 -100.00001629206683 -99.99997774746771
v -100 100.00001629206683 99.99997774746771
v -100 -100.00001629206683 -99.99997774746771
v -100 -99.99997774746771 100.00001629206683
v -100 -99.99997774746771 100.00001629206683
v 100 -99.99997774746771 100.00001629206683
v 100 100.00001629206683 99.99997774746771
v -100 -99.99997774746771 100.00001629206683
v 100 100.00001629206683 99.99997774746771
v -100 100.00001629206683 99.99997774746771
v 100 -99.99997774746771 100.00001629206683
v 100 -100.00001629206683 -99.99997774746771
v 100 99.99997774746771 -100.00001629206683
v 100 -99.99997774746771 100.00001629206683
v 100 99.99997774746771 -100.00001629206683
v 100 100.00001629206683 99.99997774746771
v -100 -99.99997774746771 100.00001629206683
v -100 -100.00001629206683 -99.99997774746771
v 100 -100.00001629206683 -99.99997774746771
v -100 -99.99997774746771 100.00001629206683
v 100 -100.00001629206683 -99.99997774746771
v 100 -99.99997774746771 100.00001629206683
vt 0.5 5.960464477539063e-8
vt 0.4999999701976776 0.5
vt 2.1855694143368964e-8 0.4999999403953552
vt 0.5 5.960464477539063e-8
vt 2.1855694143368964e-8 0.4999999403953552
vt 5.960463766996327e-8 0
vt 0.9999999403953552 1
vt 0.5 1
vt 0.5000000596046448 0.5000000596046448
vt 0.9999999403953552 1
vt 0.5000000596046448 0.5000000596046448
vt 1 0.5000001192092896
vt 0.5 0
vt 1 0
vt 0.9999999403953552 0.4999999403953552
vt 0.5 0
vt 0.9999999403953552 0.4999999403953552
vt 0.5 0.4999999403953552
vt 0.5 1.1920928955078125e-7
vt 0.4999999403953552 0.5
vt 0 0.5
vt 0.5 1.1920928955078125e-7
vt 0 0.5
vt 5.960464477539063e-8 5.960464477539063e-8
vt 0.9999999403953552 0.5
vt 0.5 0.4999999403953552
vt 0.5000000596046448 0
vt 0.9999999403953552 0.5
vt 0.5000000596046448 0
vt 1 5.960464477539063e-8
vt 0.9999999403953552 1
vt 0.5 0.9999999403953552
vt 0.5000000596046448 0.5
vt 0.9999999403953552 1
vt 0.5000000596046448 0.5
vt 1 0.5000000596046448
vn 0 -1.9272300044725862e-7 -0.9999999999999815
vn 0 -1.9272300044725862e-7 -0.9999999999999815
vn 0 -1.9272300044725862e-7 -0.9999999999999815
vn 0 -1.9272300044725862e-7 -0.9999999999999815
vn 0 -1.9272300044725862e-7 -0.9999999999999815
vn 0 -1.9272300044725862e-7 -0.9999999999999815
vn 0 0.9999999999999815 -1.9272300044725862e-7
vn 0 0.9999999999999815 -1.9272300044725862e-7
vn 0 0.9999999999999815 -1.9272300044725862e-7
vn 0 0.9999999999999815 -1.9272300044725862e-7
vn 0 0.9999999999999815 -1.9272300044725862e-7
vn 0 0.9999999999999815 -1.9272300044725862e-7
vn -0.9999999999999999 -2.4277072855764868e-15 -1.490116119384726e-8
vn -0.9999999999999999 -2.4277072855764868e-15 -1.490116119384726e-8
vn -0.9999999999999999 -2.4277072855764868e-15 -1.490116119384726e-8
vn -0.9999999999999999 -2.4277072855764868e-15 -1.490116119384726e-8
vn -0.9999999999999999 -2.4277072855764868e-15 -1.490116119384726e-8
vn -0.9999999999999999 -2.4277072855764868e-15 -1.490116119384726e-8
vn 0 1.9272300044725862e-7 0.9999999999999815
vn 0 1.9272300044725862e-7 0.9999999999999815
vn 0 1.9272300044725862e-7 0.9999999999999815
vn 0 1.9272300044725862e-7 0.9999999999999815
vn 0 1.9272300044725862e-7 0.9999999999999815
vn 0 1.9272300044725862e-7 0.9999999999999815
vn 0.9999999999999999 2.4277072855764868e-15 1.490116119384726e-8
vn 0.9999999999999999 2.4277072855764868e-15 1.490116119384726e-8
vn 0.9999999999999999 2.4277072855764868e-15 1.490116119384726e-8
vn 0.9999999999999999 2.4277072855764868e-15 1.490116119384726e-8
vn 0.9999999999999999 2.4277072855764868e-15 1.490116119384726e-8
vn 0.9999999999999999 2.4277072855764868e-15 1.490116119384726e-8
vn 0 -0.9999999999999815 1.9272300044725862e-7
vn 0 -0.9999999999999815 1.9272300044725862e-7
vn 0 -0.9999999999999815 1.9272300044725862e-7
vn 0 -0.9999999999999815 1.9272300044725862e-7
vn 0 -0.9999999999999815 1.9272300044725862e-7
vn 0 -0.9999999999999815 1.9272300044725862e-7
f 1/1/1 2/2/2 3/3/3
f 4/4/4 5/5/5 6/6/6
f 7/7/7 8/8/8 9/9/9
f 10/10/10 11/11/11 12/12/12
f 13/13/13 14/14/14 15/15/15
f 16/16/16 17/17/17 18/18/18
f 19/19/19 20/20/20 21/21/21
f 22/22/22 23/23/23 24/24/24
f 25/25/25 26/26/26 27/27/27
f 28/28/28 29/29/29 30/30/30
f 31/31/31 32/32/32 33/33/33
f 34/34/34 35/35/35 36/36/36
